M48
; DRILL file {KiCad (6.0.9)} date Mon Nov 21 20:36:19 2022
; FORMAT={-:-/ absolute / metric / decimal}
; #@! TF.CreationDate,2022-11-21T20:36:19+01:00
; #@! TF.GenerationSoftware,Kicad,Pcbnew,(6.0.9)
; #@! TF.FileFunction,Plated,1,2,PTH
FMAT,2
METRIC
; #@! TA.AperFunction,Plated,PTH,ComponentDrill
T1C1.000
%
G90
G05
T1
X172.72Y-109.22
X172.72Y-111.76
X172.72Y-114.3
X172.72Y-116.84
X172.72Y-119.38
X172.72Y-121.92
X172.72Y-132.08
X172.72Y-134.62
X172.72Y-137.16
X172.72Y-139.7
X172.72Y-142.24
X172.72Y-144.78
X175.26Y-109.22
X175.26Y-111.76
X175.26Y-114.3
X175.26Y-116.84
X175.26Y-119.38
X175.26Y-121.92
X175.26Y-132.08
X175.26Y-134.62
X175.26Y-137.16
X175.26Y-139.7
X175.26Y-142.24
X175.26Y-144.78
X180.34Y-109.22
X180.34Y-111.76
X180.34Y-114.3
X180.34Y-116.84
X180.34Y-119.38
X180.34Y-121.92
X180.34Y-132.08
X180.34Y-134.62
X180.34Y-137.16
X180.34Y-139.7
X180.34Y-142.24
X180.34Y-144.78
X182.88Y-109.22
X182.88Y-111.76
X182.88Y-114.3
X182.88Y-116.84
X182.88Y-119.38
X182.88Y-121.92
X182.88Y-132.08
X182.88Y-134.62
X182.88Y-137.16
X182.88Y-139.7
X182.88Y-142.24
X182.88Y-144.78
X185.42Y-109.22
X185.42Y-111.76
X185.42Y-114.3
X185.42Y-116.84
X185.42Y-119.38
X185.42Y-121.92
X185.42Y-124.46
X185.42Y-127.0
X185.42Y-129.54
X185.42Y-132.08
X185.42Y-134.62
X185.42Y-137.16
X185.42Y-139.7
X185.42Y-142.24
X185.42Y-144.78
X187.96Y-109.22
X187.96Y-111.76
X187.96Y-114.3
X187.96Y-116.84
X187.96Y-119.38
X187.96Y-121.92
X187.96Y-124.46
X187.96Y-127.0
X187.96Y-129.54
X187.96Y-132.08
X187.96Y-134.62
X187.96Y-137.16
X187.96Y-139.7
X187.96Y-142.24
X187.96Y-144.78
X190.5Y-109.22
X190.5Y-111.76
X190.5Y-114.3
X190.5Y-116.84
X190.5Y-119.38
X190.5Y-121.92
X190.5Y-124.46
X190.5Y-127.0
X190.5Y-129.54
X190.5Y-132.08
X190.5Y-134.62
X190.5Y-137.16
X190.5Y-139.7
X190.5Y-142.24
X190.5Y-144.78
X193.04Y-109.22
X193.04Y-111.76
X193.04Y-114.3
X193.04Y-116.84
X193.04Y-119.38
X193.04Y-121.92
X193.04Y-124.46
X193.04Y-127.0
X193.04Y-129.54
X193.04Y-132.08
X193.04Y-134.62
X193.04Y-137.16
X193.04Y-139.7
X193.04Y-142.24
X193.04Y-144.78
X195.58Y-109.22
X195.58Y-111.76
X195.58Y-114.3
X195.58Y-116.84
X195.58Y-119.38
X195.58Y-121.92
X195.58Y-124.46
X195.58Y-127.0
X195.58Y-129.54
X195.58Y-132.08
X195.58Y-134.62
X195.58Y-137.16
X195.58Y-139.7
X195.58Y-142.24
X195.58Y-144.78
X198.12Y-109.22
X198.12Y-111.76
X198.12Y-114.3
X198.12Y-116.84
X198.12Y-119.38
X198.12Y-121.92
X198.12Y-124.46
X198.12Y-127.0
X198.12Y-129.54
X198.12Y-132.08
X198.12Y-134.62
X198.12Y-137.16
X198.12Y-139.7
X198.12Y-142.24
X198.12Y-144.78
X200.66Y-109.22
X200.66Y-111.76
X200.66Y-114.3
X200.66Y-116.84
X200.66Y-119.38
X200.66Y-121.92
X200.66Y-124.46
X200.66Y-127.0
X200.66Y-129.54
X200.66Y-132.08
X200.66Y-134.62
X200.66Y-137.16
X200.66Y-139.7
X200.66Y-142.24
X200.66Y-144.78
X203.2Y-109.22
X203.2Y-111.76
X203.2Y-114.3
X203.2Y-116.84
X203.2Y-119.38
X203.2Y-121.92
X203.2Y-124.46
X203.2Y-127.0
X203.2Y-129.54
X203.2Y-132.08
X203.2Y-134.62
X203.2Y-137.16
X203.2Y-139.7
X203.2Y-142.24
X203.2Y-144.78
X205.74Y-109.22
X205.74Y-111.76
X205.74Y-114.3
X205.74Y-116.84
X205.74Y-119.38
X205.74Y-121.92
X205.74Y-124.46
X205.74Y-127.0
X205.74Y-129.54
X205.74Y-132.08
X205.74Y-134.62
X205.74Y-137.16
X205.74Y-139.7
X205.74Y-142.24
X205.74Y-144.78
X208.28Y-109.22
X208.28Y-111.76
X208.28Y-114.3
X208.28Y-116.84
X208.28Y-119.38
X208.28Y-121.92
X208.28Y-124.46
X208.28Y-127.0
X208.28Y-129.54
X208.28Y-132.08
X208.28Y-134.62
X208.28Y-137.16
X208.28Y-139.7
X208.28Y-142.24
X208.28Y-144.78
X210.82Y-109.22
X210.82Y-111.76
X210.82Y-114.3
X210.82Y-116.84
X210.82Y-119.38
X210.82Y-121.92
X210.82Y-124.46
X210.82Y-127.0
X210.82Y-129.54
X210.82Y-132.08
X210.82Y-134.62
X210.82Y-137.16
X210.82Y-139.7
X210.82Y-142.24
X210.82Y-144.78
X213.36Y-109.22
X213.36Y-111.76
X213.36Y-114.3
X213.36Y-116.84
X213.36Y-119.38
X213.36Y-121.92
X213.36Y-124.46
X213.36Y-127.0
X213.36Y-129.54
X213.36Y-132.08
X213.36Y-134.62
X213.36Y-137.16
X213.36Y-139.7
X213.36Y-142.24
X213.36Y-144.78
X215.9Y-109.22
X215.9Y-111.76
X215.9Y-114.3
X215.9Y-116.84
X215.9Y-119.38
X215.9Y-121.92
X215.9Y-124.46
X215.9Y-127.0
X215.9Y-129.54
X215.9Y-132.08
X215.9Y-134.62
X215.9Y-137.16
X215.9Y-139.7
X215.9Y-142.24
X215.9Y-144.78
X218.44Y-109.22
X218.44Y-111.76
X218.44Y-114.3
X218.44Y-116.84
X218.44Y-119.38
X218.44Y-121.92
X218.44Y-124.46
X218.44Y-127.0
X218.44Y-129.54
X218.44Y-132.08
X218.44Y-134.62
X218.44Y-137.16
X218.44Y-139.7
X218.44Y-142.24
X218.44Y-144.78
X220.98Y-109.22
X220.98Y-111.76
X220.98Y-114.3
X220.98Y-116.84
X220.98Y-119.38
X220.98Y-121.92
X220.98Y-124.46
X220.98Y-127.0
X220.98Y-129.54
X220.98Y-132.08
X220.98Y-134.62
X220.98Y-137.16
X220.98Y-139.7
X220.98Y-142.24
X220.98Y-144.78
X223.52Y-109.22
X223.52Y-111.76
X223.52Y-114.3
X223.52Y-116.84
X223.52Y-119.38
X223.52Y-121.92
X223.52Y-124.46
X223.52Y-127.0
X223.52Y-129.54
X223.52Y-132.08
X223.52Y-134.62
X223.52Y-137.16
X223.52Y-139.7
X223.52Y-142.24
X223.52Y-144.78
X226.06Y-109.22
X226.06Y-111.76
X226.06Y-114.3
X226.06Y-116.84
X226.06Y-119.38
X226.06Y-121.92
X226.06Y-124.46
X226.06Y-127.0
X226.06Y-129.54
X226.06Y-132.08
X226.06Y-134.62
X226.06Y-137.16
X226.06Y-139.7
X226.06Y-142.24
X226.06Y-144.78
X228.6Y-109.22
X228.6Y-111.76
X228.6Y-114.3
X228.6Y-116.84
X228.6Y-119.38
X228.6Y-121.92
X228.6Y-124.46
X228.6Y-127.0
X228.6Y-129.54
X228.6Y-132.08
X228.6Y-134.62
X228.6Y-137.16
X228.6Y-139.7
X228.6Y-142.24
X228.6Y-144.78
X231.14Y-109.22
X231.14Y-111.76
X231.14Y-114.3
X231.14Y-116.84
X231.14Y-119.38
X231.14Y-121.92
X231.14Y-124.46
X231.14Y-127.0
X231.14Y-129.54
X231.14Y-132.08
X231.14Y-134.62
X231.14Y-137.16
X231.14Y-139.7
X231.14Y-142.24
X231.14Y-144.78
X233.68Y-109.22
X233.68Y-111.76
X233.68Y-114.3
X233.68Y-116.84
X233.68Y-119.38
X233.68Y-121.92
X233.68Y-124.46
X233.68Y-127.0
X233.68Y-129.54
X233.68Y-132.08
X233.68Y-134.62
X233.68Y-137.16
X233.68Y-139.7
X233.68Y-142.24
X233.68Y-144.78
X236.22Y-109.22
X236.22Y-111.76
X236.22Y-114.3
X236.22Y-116.84
X236.22Y-119.38
X236.22Y-121.92
X236.22Y-124.46
X236.22Y-127.0
X236.22Y-129.54
X236.22Y-132.08
X236.22Y-134.62
X236.22Y-137.16
X236.22Y-139.7
X236.22Y-142.24
X236.22Y-144.78
X238.76Y-109.22
X238.76Y-111.76
X238.76Y-114.3
X238.76Y-116.84
X238.76Y-119.38
X238.76Y-121.92
X238.76Y-124.46
X238.76Y-127.0
X238.76Y-129.54
X238.76Y-132.08
X238.76Y-134.62
X238.76Y-137.16
X238.76Y-139.7
X238.76Y-142.24
X238.76Y-144.78
X241.3Y-109.22
X241.3Y-111.76
X241.3Y-114.3
X241.3Y-116.84
X241.3Y-119.38
X241.3Y-121.92
X241.3Y-124.46
X241.3Y-127.0
X241.3Y-129.54
X241.3Y-132.08
X241.3Y-134.62
X241.3Y-137.16
X241.3Y-139.7
X241.3Y-142.24
X241.3Y-144.78
X243.84Y-109.22
X243.84Y-111.76
X243.84Y-114.3
X243.84Y-116.84
X243.84Y-119.38
X243.84Y-121.92
X243.84Y-124.46
X243.84Y-127.0
X243.84Y-129.54
X243.84Y-132.08
X243.84Y-134.62
X243.84Y-137.16
X243.84Y-139.7
X243.84Y-142.24
X243.84Y-144.78
X246.38Y-109.22
X246.38Y-111.76
X246.38Y-114.3
X246.38Y-116.84
X246.38Y-119.38
X246.38Y-121.92
X246.38Y-124.46
X246.38Y-127.0
X246.38Y-129.54
X246.38Y-132.08
X246.38Y-134.62
X246.38Y-137.16
X246.38Y-139.7
X246.38Y-142.24
X246.38Y-144.78
X248.92Y-109.22
X248.92Y-111.76
X248.92Y-114.3
X248.92Y-116.84
X248.92Y-119.38
X248.92Y-121.92
X248.92Y-124.46
X248.92Y-127.0
X248.92Y-129.54
X248.92Y-132.08
X248.92Y-134.62
X248.92Y-137.16
X248.92Y-139.7
X248.92Y-142.24
X248.92Y-144.78
X251.46Y-109.22
X251.46Y-111.76
X251.46Y-114.3
X251.46Y-116.84
X251.46Y-119.38
X251.46Y-121.92
X251.46Y-124.46
X251.46Y-127.0
X251.46Y-129.54
X251.46Y-132.08
X251.46Y-134.62
X251.46Y-137.16
X251.46Y-139.7
X251.46Y-142.24
X251.46Y-144.78
X254.0Y-109.22
X254.0Y-111.76
X254.0Y-114.3
X254.0Y-116.84
X254.0Y-119.38
X254.0Y-121.92
X254.0Y-124.46
X254.0Y-127.0
X254.0Y-129.54
X254.0Y-132.08
X254.0Y-134.62
X254.0Y-137.16
X254.0Y-139.7
X254.0Y-142.24
X254.0Y-144.78
X256.54Y-109.22
X256.54Y-111.76
X256.54Y-114.3
X256.54Y-116.84
X256.54Y-119.38
X256.54Y-121.92
X256.54Y-124.46
X256.54Y-127.0
X256.54Y-129.54
X256.54Y-132.08
X256.54Y-134.62
X256.54Y-137.16
X256.54Y-139.7
X256.54Y-142.24
X256.54Y-144.78
X259.08Y-109.22
X259.08Y-111.76
X259.08Y-114.3
X259.08Y-116.84
X259.08Y-119.38
X259.08Y-121.92
X259.08Y-124.46
X259.08Y-127.0
X259.08Y-129.54
X259.08Y-132.08
X259.08Y-134.62
X259.08Y-137.16
X259.08Y-139.7
X259.08Y-142.24
X259.08Y-144.78
X261.62Y-109.22
X261.62Y-111.76
X261.62Y-114.3
X261.62Y-116.84
X261.62Y-119.38
X261.62Y-121.92
X261.62Y-124.46
X261.62Y-127.0
X261.62Y-129.54
X261.62Y-132.08
X261.62Y-134.62
X261.62Y-137.16
X261.62Y-139.7
X261.62Y-142.24
X261.62Y-144.78
X264.16Y-109.22
X264.16Y-111.76
X264.16Y-114.3
X264.16Y-116.84
X264.16Y-119.38
X264.16Y-121.92
X264.16Y-124.46
X264.16Y-127.0
X264.16Y-129.54
X264.16Y-132.08
X264.16Y-134.62
X264.16Y-137.16
X264.16Y-139.7
X264.16Y-142.24
X264.16Y-144.78
T0
M30
