G04 #@! TF.GenerationSoftware,KiCad,Pcbnew,(6.0.9)*
G04 #@! TF.CreationDate,2022-11-21T20:36:18+01:00*
G04 #@! TF.ProjectId,PMOD proto board,504d4f44-2070-4726-9f74-6f20626f6172,V1.0*
G04 #@! TF.SameCoordinates,Original*
G04 #@! TF.FileFunction,Legend,Top*
G04 #@! TF.FilePolarity,Positive*
%FSLAX46Y46*%
G04 Gerber Fmt 4.6, Leading zero omitted, Abs format (unit mm)*
G04 Created by KiCad (PCBNEW (6.0.9)) date 2022-11-21 20:36:18*
%MOMM*%
%LPD*%
G01*
G04 APERTURE LIST*
G04 Aperture macros list*
%AMRoundRect*
0 Rectangle with rounded corners*
0 $1 Rounding radius*
0 $2 $3 $4 $5 $6 $7 $8 $9 X,Y pos of 4 corners*
0 Add a 4 corners polygon primitive as box body*
4,1,4,$2,$3,$4,$5,$6,$7,$8,$9,$2,$3,0*
0 Add four circle primitives for the rounded corners*
1,1,$1+$1,$2,$3*
1,1,$1+$1,$4,$5*
1,1,$1+$1,$6,$7*
1,1,$1+$1,$8,$9*
0 Add four rect primitives between the rounded corners*
20,1,$1+$1,$2,$3,$4,$5,0*
20,1,$1+$1,$4,$5,$6,$7,0*
20,1,$1+$1,$6,$7,$8,$9,0*
20,1,$1+$1,$8,$9,$2,$3,0*%
G04 Aperture macros list end*
%ADD10C,0.150000*%
%ADD11C,0.120000*%
%ADD12RoundRect,0.250000X0.450000X-0.350000X0.450000X0.350000X-0.450000X0.350000X-0.450000X-0.350000X0*%
%ADD13RoundRect,0.250000X-0.450000X0.325000X-0.450000X-0.325000X0.450000X-0.325000X0.450000X0.325000X0*%
%ADD14RoundRect,0.250000X0.475000X-0.337500X0.475000X0.337500X-0.475000X0.337500X-0.475000X-0.337500X0*%
%ADD15C,1.700000*%
%ADD16C,2.000000*%
%ADD17R,1.700000X1.700000*%
%ADD18O,1.700000X1.700000*%
G04 APERTURE END LIST*
D10*
X179705000Y-133350000D02*
X181610000Y-133350000D01*
X179705000Y-130810000D02*
X181610000Y-130810000D01*
X181610000Y-130810000D02*
X182880000Y-132080000D01*
X181610000Y-135890000D02*
X182880000Y-137160000D01*
X181610000Y-133350000D02*
X182880000Y-134620000D01*
X181610000Y-138430000D02*
X182880000Y-139700000D01*
X179705000Y-138430000D02*
X181610000Y-138430000D01*
X179705000Y-135890000D02*
X181610000Y-135890000D01*
X176940785Y-141740000D02*
X176845547Y-141692380D01*
X176702690Y-141692380D01*
X176559833Y-141740000D01*
X176464595Y-141835238D01*
X176416976Y-141930476D01*
X176369357Y-142120952D01*
X176369357Y-142263809D01*
X176416976Y-142454285D01*
X176464595Y-142549523D01*
X176559833Y-142644761D01*
X176702690Y-142692380D01*
X176797928Y-142692380D01*
X176940785Y-142644761D01*
X176988404Y-142597142D01*
X176988404Y-142263809D01*
X176797928Y-142263809D01*
X177416976Y-142692380D02*
X177416976Y-141692380D01*
X177988404Y-142692380D01*
X177988404Y-141692380D01*
X178464595Y-142692380D02*
X178464595Y-141692380D01*
X178702690Y-141692380D01*
X178845547Y-141740000D01*
X178940785Y-141835238D01*
X178988404Y-141930476D01*
X179036023Y-142120952D01*
X179036023Y-142263809D01*
X178988404Y-142454285D01*
X178940785Y-142549523D01*
X178845547Y-142644761D01*
X178702690Y-142692380D01*
X178464595Y-142692380D01*
X176607452Y-144232380D02*
X177226500Y-144232380D01*
X176893166Y-144613333D01*
X177036023Y-144613333D01*
X177131261Y-144660952D01*
X177178880Y-144708571D01*
X177226500Y-144803809D01*
X177226500Y-145041904D01*
X177178880Y-145137142D01*
X177131261Y-145184761D01*
X177036023Y-145232380D01*
X176750309Y-145232380D01*
X176655071Y-145184761D01*
X176607452Y-145137142D01*
X177512214Y-144232380D02*
X177845547Y-145232380D01*
X178178880Y-144232380D01*
X178416976Y-144232380D02*
X179036023Y-144232380D01*
X178702690Y-144613333D01*
X178845547Y-144613333D01*
X178940785Y-144660952D01*
X178988404Y-144708571D01*
X179036023Y-144803809D01*
X179036023Y-145041904D01*
X178988404Y-145137142D01*
X178940785Y-145184761D01*
X178845547Y-145232380D01*
X178559833Y-145232380D01*
X178464595Y-145184761D01*
X178416976Y-145137142D01*
X176988404Y-138882380D02*
X176988404Y-137882380D01*
X177655071Y-137882380D02*
X177845547Y-137882380D01*
X177940785Y-137930000D01*
X178036023Y-138025238D01*
X178083642Y-138215714D01*
X178083642Y-138549047D01*
X178036023Y-138739523D01*
X177940785Y-138834761D01*
X177845547Y-138882380D01*
X177655071Y-138882380D01*
X177559833Y-138834761D01*
X177464595Y-138739523D01*
X177416976Y-138549047D01*
X177416976Y-138215714D01*
X177464595Y-138025238D01*
X177559833Y-137930000D01*
X177655071Y-137882380D01*
X178940785Y-138215714D02*
X178940785Y-138882380D01*
X178702690Y-137834761D02*
X178464595Y-138549047D01*
X179083642Y-138549047D01*
X176988404Y-140152380D02*
X176988404Y-139152380D01*
X177655071Y-139152380D02*
X177845547Y-139152380D01*
X177940785Y-139200000D01*
X178036023Y-139295238D01*
X178083642Y-139485714D01*
X178083642Y-139819047D01*
X178036023Y-140009523D01*
X177940785Y-140104761D01*
X177845547Y-140152380D01*
X177655071Y-140152380D01*
X177559833Y-140104761D01*
X177464595Y-140009523D01*
X177416976Y-139819047D01*
X177416976Y-139485714D01*
X177464595Y-139295238D01*
X177559833Y-139200000D01*
X177655071Y-139152380D01*
X178655071Y-139580952D02*
X178559833Y-139533333D01*
X178512214Y-139485714D01*
X178464595Y-139390476D01*
X178464595Y-139342857D01*
X178512214Y-139247619D01*
X178559833Y-139200000D01*
X178655071Y-139152380D01*
X178845547Y-139152380D01*
X178940785Y-139200000D01*
X178988404Y-139247619D01*
X179036023Y-139342857D01*
X179036023Y-139390476D01*
X178988404Y-139485714D01*
X178940785Y-139533333D01*
X178845547Y-139580952D01*
X178655071Y-139580952D01*
X178559833Y-139628571D01*
X178512214Y-139676190D01*
X178464595Y-139771428D01*
X178464595Y-139961904D01*
X178512214Y-140057142D01*
X178559833Y-140104761D01*
X178655071Y-140152380D01*
X178845547Y-140152380D01*
X178940785Y-140104761D01*
X178988404Y-140057142D01*
X179036023Y-139961904D01*
X179036023Y-139771428D01*
X178988404Y-139676190D01*
X178940785Y-139628571D01*
X178845547Y-139580952D01*
X176988404Y-133802380D02*
X176988404Y-132802380D01*
X177655071Y-132802380D02*
X177845547Y-132802380D01*
X177940785Y-132850000D01*
X178036023Y-132945238D01*
X178083642Y-133135714D01*
X178083642Y-133469047D01*
X178036023Y-133659523D01*
X177940785Y-133754761D01*
X177845547Y-133802380D01*
X177655071Y-133802380D01*
X177559833Y-133754761D01*
X177464595Y-133659523D01*
X177416976Y-133469047D01*
X177416976Y-133135714D01*
X177464595Y-132945238D01*
X177559833Y-132850000D01*
X177655071Y-132802380D01*
X178464595Y-132897619D02*
X178512214Y-132850000D01*
X178607452Y-132802380D01*
X178845547Y-132802380D01*
X178940785Y-132850000D01*
X178988404Y-132897619D01*
X179036023Y-132992857D01*
X179036023Y-133088095D01*
X178988404Y-133230952D01*
X178416976Y-133802380D01*
X179036023Y-133802380D01*
X176988404Y-135072380D02*
X176988404Y-134072380D01*
X177655071Y-134072380D02*
X177845547Y-134072380D01*
X177940785Y-134120000D01*
X178036023Y-134215238D01*
X178083642Y-134405714D01*
X178083642Y-134739047D01*
X178036023Y-134929523D01*
X177940785Y-135024761D01*
X177845547Y-135072380D01*
X177655071Y-135072380D01*
X177559833Y-135024761D01*
X177464595Y-134929523D01*
X177416976Y-134739047D01*
X177416976Y-134405714D01*
X177464595Y-134215238D01*
X177559833Y-134120000D01*
X177655071Y-134072380D01*
X178940785Y-134072380D02*
X178750309Y-134072380D01*
X178655071Y-134120000D01*
X178607452Y-134167619D01*
X178512214Y-134310476D01*
X178464595Y-134500952D01*
X178464595Y-134881904D01*
X178512214Y-134977142D01*
X178559833Y-135024761D01*
X178655071Y-135072380D01*
X178845547Y-135072380D01*
X178940785Y-135024761D01*
X178988404Y-134977142D01*
X179036023Y-134881904D01*
X179036023Y-134643809D01*
X178988404Y-134548571D01*
X178940785Y-134500952D01*
X178845547Y-134453333D01*
X178655071Y-134453333D01*
X178559833Y-134500952D01*
X178512214Y-134548571D01*
X178464595Y-134643809D01*
X176988404Y-137612380D02*
X176988404Y-136612380D01*
X177655071Y-136612380D02*
X177845547Y-136612380D01*
X177940785Y-136660000D01*
X178036023Y-136755238D01*
X178083642Y-136945714D01*
X178083642Y-137279047D01*
X178036023Y-137469523D01*
X177940785Y-137564761D01*
X177845547Y-137612380D01*
X177655071Y-137612380D01*
X177559833Y-137564761D01*
X177464595Y-137469523D01*
X177416976Y-137279047D01*
X177416976Y-136945714D01*
X177464595Y-136755238D01*
X177559833Y-136660000D01*
X177655071Y-136612380D01*
X178416976Y-136612380D02*
X179083642Y-136612380D01*
X178655071Y-137612380D01*
X176988404Y-136342380D02*
X176988404Y-135342380D01*
X177655071Y-135342380D02*
X177845547Y-135342380D01*
X177940785Y-135390000D01*
X178036023Y-135485238D01*
X178083642Y-135675714D01*
X178083642Y-136009047D01*
X178036023Y-136199523D01*
X177940785Y-136294761D01*
X177845547Y-136342380D01*
X177655071Y-136342380D01*
X177559833Y-136294761D01*
X177464595Y-136199523D01*
X177416976Y-136009047D01*
X177416976Y-135675714D01*
X177464595Y-135485238D01*
X177559833Y-135390000D01*
X177655071Y-135342380D01*
X178416976Y-135342380D02*
X179036023Y-135342380D01*
X178702690Y-135723333D01*
X178845547Y-135723333D01*
X178940785Y-135770952D01*
X178988404Y-135818571D01*
X179036023Y-135913809D01*
X179036023Y-136151904D01*
X178988404Y-136247142D01*
X178940785Y-136294761D01*
X178845547Y-136342380D01*
X178559833Y-136342380D01*
X178464595Y-136294761D01*
X178416976Y-136247142D01*
X176988404Y-131262380D02*
X176988404Y-130262380D01*
X177655071Y-130262380D02*
X177845547Y-130262380D01*
X177940785Y-130310000D01*
X178036023Y-130405238D01*
X178083642Y-130595714D01*
X178083642Y-130929047D01*
X178036023Y-131119523D01*
X177940785Y-131214761D01*
X177845547Y-131262380D01*
X177655071Y-131262380D01*
X177559833Y-131214761D01*
X177464595Y-131119523D01*
X177416976Y-130929047D01*
X177416976Y-130595714D01*
X177464595Y-130405238D01*
X177559833Y-130310000D01*
X177655071Y-130262380D01*
X179036023Y-131262380D02*
X178464595Y-131262380D01*
X178750309Y-131262380D02*
X178750309Y-130262380D01*
X178655071Y-130405238D01*
X178559833Y-130500476D01*
X178464595Y-130548095D01*
X176988404Y-132532380D02*
X176988404Y-131532380D01*
X177655071Y-131532380D02*
X177845547Y-131532380D01*
X177940785Y-131580000D01*
X178036023Y-131675238D01*
X178083642Y-131865714D01*
X178083642Y-132199047D01*
X178036023Y-132389523D01*
X177940785Y-132484761D01*
X177845547Y-132532380D01*
X177655071Y-132532380D01*
X177559833Y-132484761D01*
X177464595Y-132389523D01*
X177416976Y-132199047D01*
X177416976Y-131865714D01*
X177464595Y-131675238D01*
X177559833Y-131580000D01*
X177655071Y-131532380D01*
X178988404Y-131532380D02*
X178512214Y-131532380D01*
X178464595Y-132008571D01*
X178512214Y-131960952D01*
X178607452Y-131913333D01*
X178845547Y-131913333D01*
X178940785Y-131960952D01*
X178988404Y-132008571D01*
X179036023Y-132103809D01*
X179036023Y-132341904D01*
X178988404Y-132437142D01*
X178940785Y-132484761D01*
X178845547Y-132532380D01*
X178607452Y-132532380D01*
X178512214Y-132484761D01*
X178464595Y-132437142D01*
X170868571Y-147772380D02*
X170868571Y-146772380D01*
X171249523Y-146772380D01*
X171344761Y-146820000D01*
X171392380Y-146867619D01*
X171440000Y-146962857D01*
X171440000Y-147105714D01*
X171392380Y-147200952D01*
X171344761Y-147248571D01*
X171249523Y-147296190D01*
X170868571Y-147296190D01*
X171868571Y-147772380D02*
X171868571Y-146772380D01*
X172201904Y-147486666D01*
X172535238Y-146772380D01*
X172535238Y-147772380D01*
X173201904Y-146772380D02*
X173392380Y-146772380D01*
X173487619Y-146820000D01*
X173582857Y-146915238D01*
X173630476Y-147105714D01*
X173630476Y-147439047D01*
X173582857Y-147629523D01*
X173487619Y-147724761D01*
X173392380Y-147772380D01*
X173201904Y-147772380D01*
X173106666Y-147724761D01*
X173011428Y-147629523D01*
X172963809Y-147439047D01*
X172963809Y-147105714D01*
X173011428Y-146915238D01*
X173106666Y-146820000D01*
X173201904Y-146772380D01*
X174059047Y-147772380D02*
X174059047Y-146772380D01*
X174297142Y-146772380D01*
X174440000Y-146820000D01*
X174535238Y-146915238D01*
X174582857Y-147010476D01*
X174630476Y-147200952D01*
X174630476Y-147343809D01*
X174582857Y-147534285D01*
X174535238Y-147629523D01*
X174440000Y-147724761D01*
X174297142Y-147772380D01*
X174059047Y-147772380D01*
X175820952Y-147105714D02*
X175820952Y-148105714D01*
X175820952Y-147153333D02*
X175916190Y-147105714D01*
X176106666Y-147105714D01*
X176201904Y-147153333D01*
X176249523Y-147200952D01*
X176297142Y-147296190D01*
X176297142Y-147581904D01*
X176249523Y-147677142D01*
X176201904Y-147724761D01*
X176106666Y-147772380D01*
X175916190Y-147772380D01*
X175820952Y-147724761D01*
X176725714Y-147772380D02*
X176725714Y-147105714D01*
X176725714Y-147296190D02*
X176773333Y-147200952D01*
X176820952Y-147153333D01*
X176916190Y-147105714D01*
X177011428Y-147105714D01*
X177487619Y-147772380D02*
X177392380Y-147724761D01*
X177344761Y-147677142D01*
X177297142Y-147581904D01*
X177297142Y-147296190D01*
X177344761Y-147200952D01*
X177392380Y-147153333D01*
X177487619Y-147105714D01*
X177630476Y-147105714D01*
X177725714Y-147153333D01*
X177773333Y-147200952D01*
X177820952Y-147296190D01*
X177820952Y-147581904D01*
X177773333Y-147677142D01*
X177725714Y-147724761D01*
X177630476Y-147772380D01*
X177487619Y-147772380D01*
X178106666Y-147105714D02*
X178487619Y-147105714D01*
X178249523Y-146772380D02*
X178249523Y-147629523D01*
X178297142Y-147724761D01*
X178392380Y-147772380D01*
X178487619Y-147772380D01*
X178963809Y-147772380D02*
X178868571Y-147724761D01*
X178820952Y-147677142D01*
X178773333Y-147581904D01*
X178773333Y-147296190D01*
X178820952Y-147200952D01*
X178868571Y-147153333D01*
X178963809Y-147105714D01*
X179106666Y-147105714D01*
X179201904Y-147153333D01*
X179249523Y-147200952D01*
X179297142Y-147296190D01*
X179297142Y-147581904D01*
X179249523Y-147677142D01*
X179201904Y-147724761D01*
X179106666Y-147772380D01*
X178963809Y-147772380D01*
X180487619Y-147772380D02*
X180487619Y-146772380D01*
X180487619Y-147153333D02*
X180582857Y-147105714D01*
X180773333Y-147105714D01*
X180868571Y-147153333D01*
X180916190Y-147200952D01*
X180963809Y-147296190D01*
X180963809Y-147581904D01*
X180916190Y-147677142D01*
X180868571Y-147724761D01*
X180773333Y-147772380D01*
X180582857Y-147772380D01*
X180487619Y-147724761D01*
X181535238Y-147772380D02*
X181440000Y-147724761D01*
X181392380Y-147677142D01*
X181344761Y-147581904D01*
X181344761Y-147296190D01*
X181392380Y-147200952D01*
X181440000Y-147153333D01*
X181535238Y-147105714D01*
X181678095Y-147105714D01*
X181773333Y-147153333D01*
X181820952Y-147200952D01*
X181868571Y-147296190D01*
X181868571Y-147581904D01*
X181820952Y-147677142D01*
X181773333Y-147724761D01*
X181678095Y-147772380D01*
X181535238Y-147772380D01*
X182725714Y-147772380D02*
X182725714Y-147248571D01*
X182678095Y-147153333D01*
X182582857Y-147105714D01*
X182392380Y-147105714D01*
X182297142Y-147153333D01*
X182725714Y-147724761D02*
X182630476Y-147772380D01*
X182392380Y-147772380D01*
X182297142Y-147724761D01*
X182249523Y-147629523D01*
X182249523Y-147534285D01*
X182297142Y-147439047D01*
X182392380Y-147391428D01*
X182630476Y-147391428D01*
X182725714Y-147343809D01*
X183201904Y-147772380D02*
X183201904Y-147105714D01*
X183201904Y-147296190D02*
X183249523Y-147200952D01*
X183297142Y-147153333D01*
X183392380Y-147105714D01*
X183487619Y-147105714D01*
X184249523Y-147772380D02*
X184249523Y-146772380D01*
X184249523Y-147724761D02*
X184154285Y-147772380D01*
X183963809Y-147772380D01*
X183868571Y-147724761D01*
X183820952Y-147677142D01*
X183773333Y-147581904D01*
X183773333Y-147296190D01*
X183820952Y-147200952D01*
X183868571Y-147153333D01*
X183963809Y-147105714D01*
X184154285Y-147105714D01*
X184249523Y-147153333D01*
X184773333Y-147724761D02*
X184773333Y-147772380D01*
X184725714Y-147867619D01*
X184678095Y-147915238D01*
X185916190Y-146867619D02*
X185963809Y-146820000D01*
X186059047Y-146772380D01*
X186297142Y-146772380D01*
X186392380Y-146820000D01*
X186440000Y-146867619D01*
X186487619Y-146962857D01*
X186487619Y-147058095D01*
X186440000Y-147200952D01*
X185868571Y-147772380D01*
X186487619Y-147772380D01*
X187106666Y-146772380D02*
X187201904Y-146772380D01*
X187297142Y-146820000D01*
X187344761Y-146867619D01*
X187392380Y-146962857D01*
X187440000Y-147153333D01*
X187440000Y-147391428D01*
X187392380Y-147581904D01*
X187344761Y-147677142D01*
X187297142Y-147724761D01*
X187201904Y-147772380D01*
X187106666Y-147772380D01*
X187011428Y-147724761D01*
X186963809Y-147677142D01*
X186916190Y-147581904D01*
X186868571Y-147391428D01*
X186868571Y-147153333D01*
X186916190Y-146962857D01*
X186963809Y-146867619D01*
X187011428Y-146820000D01*
X187106666Y-146772380D01*
X187820952Y-146867619D02*
X187868571Y-146820000D01*
X187963809Y-146772380D01*
X188201904Y-146772380D01*
X188297142Y-146820000D01*
X188344761Y-146867619D01*
X188392380Y-146962857D01*
X188392380Y-147058095D01*
X188344761Y-147200952D01*
X187773333Y-147772380D01*
X188392380Y-147772380D01*
X188773333Y-146867619D02*
X188820952Y-146820000D01*
X188916190Y-146772380D01*
X189154285Y-146772380D01*
X189249523Y-146820000D01*
X189297142Y-146867619D01*
X189344761Y-146962857D01*
X189344761Y-147058095D01*
X189297142Y-147200952D01*
X188725714Y-147772380D01*
X189344761Y-147772380D01*
X189773333Y-147391428D02*
X190535238Y-147391428D01*
X191535238Y-147772380D02*
X190963809Y-147772380D01*
X191249523Y-147772380D02*
X191249523Y-146772380D01*
X191154285Y-146915238D01*
X191059047Y-147010476D01*
X190963809Y-147058095D01*
X191916190Y-146867619D02*
X191963809Y-146820000D01*
X192059047Y-146772380D01*
X192297142Y-146772380D01*
X192392380Y-146820000D01*
X192440000Y-146867619D01*
X192487619Y-146962857D01*
X192487619Y-147058095D01*
X192440000Y-147200952D01*
X191868571Y-147772380D01*
X192487619Y-147772380D01*
X192916190Y-147391428D02*
X193678095Y-147391428D01*
X194106666Y-146867619D02*
X194154285Y-146820000D01*
X194249523Y-146772380D01*
X194487619Y-146772380D01*
X194582857Y-146820000D01*
X194630476Y-146867619D01*
X194678095Y-146962857D01*
X194678095Y-147058095D01*
X194630476Y-147200952D01*
X194059047Y-147772380D01*
X194678095Y-147772380D01*
X195297142Y-146772380D02*
X195392380Y-146772380D01*
X195487619Y-146820000D01*
X195535238Y-146867619D01*
X195582857Y-146962857D01*
X195630476Y-147153333D01*
X195630476Y-147391428D01*
X195582857Y-147581904D01*
X195535238Y-147677142D01*
X195487619Y-147724761D01*
X195392380Y-147772380D01*
X195297142Y-147772380D01*
X195201904Y-147724761D01*
X195154285Y-147677142D01*
X195106666Y-147581904D01*
X195059047Y-147391428D01*
X195059047Y-147153333D01*
X195106666Y-146962857D01*
X195154285Y-146867619D01*
X195201904Y-146820000D01*
X195297142Y-146772380D01*
X196106666Y-147724761D02*
X196106666Y-147772380D01*
X196059047Y-147867619D01*
X196011428Y-147915238D01*
X197154285Y-146772380D02*
X197487619Y-147772380D01*
X197820952Y-146772380D01*
X198678095Y-147772380D02*
X198106666Y-147772380D01*
X198392380Y-147772380D02*
X198392380Y-146772380D01*
X198297142Y-146915238D01*
X198201904Y-147010476D01*
X198106666Y-147058095D01*
X199106666Y-147677142D02*
X199154285Y-147724761D01*
X199106666Y-147772380D01*
X199059047Y-147724761D01*
X199106666Y-147677142D01*
X199106666Y-147772380D01*
X199773333Y-146772380D02*
X199868571Y-146772380D01*
X199963809Y-146820000D01*
X200011428Y-146867619D01*
X200059047Y-146962857D01*
X200106666Y-147153333D01*
X200106666Y-147391428D01*
X200059047Y-147581904D01*
X200011428Y-147677142D01*
X199963809Y-147724761D01*
X199868571Y-147772380D01*
X199773333Y-147772380D01*
X199678095Y-147724761D01*
X199630476Y-147677142D01*
X199582857Y-147581904D01*
X199535238Y-147391428D01*
X199535238Y-147153333D01*
X199582857Y-146962857D01*
X199630476Y-146867619D01*
X199678095Y-146820000D01*
X199773333Y-146772380D01*
X200582857Y-147724761D02*
X200582857Y-147772380D01*
X200535238Y-147867619D01*
X200487619Y-147915238D01*
X201773333Y-147772380D02*
X201773333Y-146772380D01*
X202201904Y-147772380D02*
X202201904Y-147248571D01*
X202154285Y-147153333D01*
X202059047Y-147105714D01*
X201916190Y-147105714D01*
X201820952Y-147153333D01*
X201773333Y-147200952D01*
X202535238Y-147105714D02*
X202916190Y-147105714D01*
X202678095Y-146772380D02*
X202678095Y-147629523D01*
X202725714Y-147724761D01*
X202820952Y-147772380D01*
X202916190Y-147772380D01*
X203106666Y-147105714D02*
X203487619Y-147105714D01*
X203249523Y-146772380D02*
X203249523Y-147629523D01*
X203297142Y-147724761D01*
X203392380Y-147772380D01*
X203487619Y-147772380D01*
X203820952Y-147105714D02*
X203820952Y-148105714D01*
X203820952Y-147153333D02*
X203916190Y-147105714D01*
X204106666Y-147105714D01*
X204201904Y-147153333D01*
X204249523Y-147200952D01*
X204297142Y-147296190D01*
X204297142Y-147581904D01*
X204249523Y-147677142D01*
X204201904Y-147724761D01*
X204106666Y-147772380D01*
X203916190Y-147772380D01*
X203820952Y-147724761D01*
X204678095Y-147724761D02*
X204773333Y-147772380D01*
X204963809Y-147772380D01*
X205059047Y-147724761D01*
X205106666Y-147629523D01*
X205106666Y-147581904D01*
X205059047Y-147486666D01*
X204963809Y-147439047D01*
X204820952Y-147439047D01*
X204725714Y-147391428D01*
X204678095Y-147296190D01*
X204678095Y-147248571D01*
X204725714Y-147153333D01*
X204820952Y-147105714D01*
X204963809Y-147105714D01*
X205059047Y-147153333D01*
X205535238Y-147677142D02*
X205582857Y-147724761D01*
X205535238Y-147772380D01*
X205487619Y-147724761D01*
X205535238Y-147677142D01*
X205535238Y-147772380D01*
X205535238Y-147153333D02*
X205582857Y-147200952D01*
X205535238Y-147248571D01*
X205487619Y-147200952D01*
X205535238Y-147153333D01*
X205535238Y-147248571D01*
X206725714Y-146724761D02*
X205868571Y-148010476D01*
X207773333Y-146724761D02*
X206916190Y-148010476D01*
X208535238Y-147105714D02*
X208535238Y-147915238D01*
X208487619Y-148010476D01*
X208440000Y-148058095D01*
X208344761Y-148105714D01*
X208201904Y-148105714D01*
X208106666Y-148058095D01*
X208535238Y-147724761D02*
X208440000Y-147772380D01*
X208249523Y-147772380D01*
X208154285Y-147724761D01*
X208106666Y-147677142D01*
X208059047Y-147581904D01*
X208059047Y-147296190D01*
X208106666Y-147200952D01*
X208154285Y-147153333D01*
X208249523Y-147105714D01*
X208440000Y-147105714D01*
X208535238Y-147153333D01*
X209011428Y-147772380D02*
X209011428Y-147105714D01*
X209011428Y-146772380D02*
X208963809Y-146820000D01*
X209011428Y-146867619D01*
X209059047Y-146820000D01*
X209011428Y-146772380D01*
X209011428Y-146867619D01*
X209344761Y-147105714D02*
X209725714Y-147105714D01*
X209487619Y-146772380D02*
X209487619Y-147629523D01*
X209535238Y-147724761D01*
X209630476Y-147772380D01*
X209725714Y-147772380D01*
X210059047Y-147772380D02*
X210059047Y-146772380D01*
X210487619Y-147772380D02*
X210487619Y-147248571D01*
X210440000Y-147153333D01*
X210344761Y-147105714D01*
X210201904Y-147105714D01*
X210106666Y-147153333D01*
X210059047Y-147200952D01*
X211392380Y-147105714D02*
X211392380Y-147772380D01*
X210963809Y-147105714D02*
X210963809Y-147629523D01*
X211011428Y-147724761D01*
X211106666Y-147772380D01*
X211249523Y-147772380D01*
X211344761Y-147724761D01*
X211392380Y-147677142D01*
X211868571Y-147772380D02*
X211868571Y-146772380D01*
X211868571Y-147153333D02*
X211963809Y-147105714D01*
X212154285Y-147105714D01*
X212249523Y-147153333D01*
X212297142Y-147200952D01*
X212344761Y-147296190D01*
X212344761Y-147581904D01*
X212297142Y-147677142D01*
X212249523Y-147724761D01*
X212154285Y-147772380D01*
X211963809Y-147772380D01*
X211868571Y-147724761D01*
X212773333Y-147677142D02*
X212820952Y-147724761D01*
X212773333Y-147772380D01*
X212725714Y-147724761D01*
X212773333Y-147677142D01*
X212773333Y-147772380D01*
X213678095Y-147724761D02*
X213582857Y-147772380D01*
X213392380Y-147772380D01*
X213297142Y-147724761D01*
X213249523Y-147677142D01*
X213201904Y-147581904D01*
X213201904Y-147296190D01*
X213249523Y-147200952D01*
X213297142Y-147153333D01*
X213392380Y-147105714D01*
X213582857Y-147105714D01*
X213678095Y-147153333D01*
X214249523Y-147772380D02*
X214154285Y-147724761D01*
X214106666Y-147677142D01*
X214059047Y-147581904D01*
X214059047Y-147296190D01*
X214106666Y-147200952D01*
X214154285Y-147153333D01*
X214249523Y-147105714D01*
X214392380Y-147105714D01*
X214487619Y-147153333D01*
X214535238Y-147200952D01*
X214582857Y-147296190D01*
X214582857Y-147581904D01*
X214535238Y-147677142D01*
X214487619Y-147724761D01*
X214392380Y-147772380D01*
X214249523Y-147772380D01*
X215011428Y-147772380D02*
X215011428Y-147105714D01*
X215011428Y-147200952D02*
X215059047Y-147153333D01*
X215154285Y-147105714D01*
X215297142Y-147105714D01*
X215392380Y-147153333D01*
X215440000Y-147248571D01*
X215440000Y-147772380D01*
X215440000Y-147248571D02*
X215487619Y-147153333D01*
X215582857Y-147105714D01*
X215725714Y-147105714D01*
X215820952Y-147153333D01*
X215868571Y-147248571D01*
X215868571Y-147772380D01*
X217059047Y-146724761D02*
X216201904Y-148010476D01*
X217820952Y-147772380D02*
X217820952Y-147248571D01*
X217773333Y-147153333D01*
X217678095Y-147105714D01*
X217487619Y-147105714D01*
X217392380Y-147153333D01*
X217820952Y-147724761D02*
X217725714Y-147772380D01*
X217487619Y-147772380D01*
X217392380Y-147724761D01*
X217344761Y-147629523D01*
X217344761Y-147534285D01*
X217392380Y-147439047D01*
X217487619Y-147391428D01*
X217725714Y-147391428D01*
X217820952Y-147343809D01*
X218154285Y-147105714D02*
X218535238Y-147105714D01*
X218297142Y-146772380D02*
X218297142Y-147629523D01*
X218344761Y-147724761D01*
X218440000Y-147772380D01*
X218535238Y-147772380D01*
X219011428Y-147772380D02*
X218916190Y-147724761D01*
X218868571Y-147677142D01*
X218820952Y-147581904D01*
X218820952Y-147296190D01*
X218868571Y-147200952D01*
X218916190Y-147153333D01*
X219011428Y-147105714D01*
X219154285Y-147105714D01*
X219249523Y-147153333D01*
X219297142Y-147200952D01*
X219344761Y-147296190D01*
X219344761Y-147581904D01*
X219297142Y-147677142D01*
X219249523Y-147724761D01*
X219154285Y-147772380D01*
X219011428Y-147772380D01*
X219916190Y-147772380D02*
X219820952Y-147724761D01*
X219773333Y-147677142D01*
X219725714Y-147581904D01*
X219725714Y-147296190D01*
X219773333Y-147200952D01*
X219820952Y-147153333D01*
X219916190Y-147105714D01*
X220059047Y-147105714D01*
X220154285Y-147153333D01*
X220201904Y-147200952D01*
X220249523Y-147296190D01*
X220249523Y-147581904D01*
X220201904Y-147677142D01*
X220154285Y-147724761D01*
X220059047Y-147772380D01*
X219916190Y-147772380D01*
X220678095Y-147772380D02*
X220678095Y-147105714D01*
X220678095Y-147200952D02*
X220725714Y-147153333D01*
X220820952Y-147105714D01*
X220963809Y-147105714D01*
X221059047Y-147153333D01*
X221106666Y-147248571D01*
X221106666Y-147772380D01*
X221106666Y-147248571D02*
X221154285Y-147153333D01*
X221249523Y-147105714D01*
X221392380Y-147105714D01*
X221487619Y-147153333D01*
X221535238Y-147248571D01*
X221535238Y-147772380D01*
X222011428Y-147105714D02*
X222011428Y-147772380D01*
X222011428Y-147200952D02*
X222059047Y-147153333D01*
X222154285Y-147105714D01*
X222297142Y-147105714D01*
X222392380Y-147153333D01*
X222440000Y-147248571D01*
X222440000Y-147772380D01*
X223297142Y-147724761D02*
X223201904Y-147772380D01*
X223011428Y-147772380D01*
X222916190Y-147724761D01*
X222868571Y-147629523D01*
X222868571Y-147248571D01*
X222916190Y-147153333D01*
X223011428Y-147105714D01*
X223201904Y-147105714D01*
X223297142Y-147153333D01*
X223344761Y-147248571D01*
X223344761Y-147343809D01*
X222868571Y-147439047D01*
X223630476Y-147105714D02*
X224011428Y-147105714D01*
X223773333Y-146772380D02*
X223773333Y-147629523D01*
X223820952Y-147724761D01*
X223916190Y-147772380D01*
X224011428Y-147772380D01*
X224344761Y-147772380D02*
X224344761Y-147105714D01*
X224344761Y-147200952D02*
X224392380Y-147153333D01*
X224487619Y-147105714D01*
X224630476Y-147105714D01*
X224725714Y-147153333D01*
X224773333Y-147248571D01*
X224773333Y-147772380D01*
X224773333Y-147248571D02*
X224820952Y-147153333D01*
X224916190Y-147105714D01*
X225059047Y-147105714D01*
X225154285Y-147153333D01*
X225201904Y-147248571D01*
X225201904Y-147772380D01*
X226106666Y-147772380D02*
X226106666Y-147248571D01*
X226059047Y-147153333D01*
X225963809Y-147105714D01*
X225773333Y-147105714D01*
X225678095Y-147153333D01*
X226106666Y-147724761D02*
X226011428Y-147772380D01*
X225773333Y-147772380D01*
X225678095Y-147724761D01*
X225630476Y-147629523D01*
X225630476Y-147534285D01*
X225678095Y-147439047D01*
X225773333Y-147391428D01*
X226011428Y-147391428D01*
X226106666Y-147343809D01*
X226582857Y-147772380D02*
X226582857Y-147105714D01*
X226582857Y-147296190D02*
X226630476Y-147200952D01*
X226678095Y-147153333D01*
X226773333Y-147105714D01*
X226868571Y-147105714D01*
X227630476Y-147724761D02*
X227535238Y-147772380D01*
X227344761Y-147772380D01*
X227249523Y-147724761D01*
X227201904Y-147677142D01*
X227154285Y-147581904D01*
X227154285Y-147296190D01*
X227201904Y-147200952D01*
X227249523Y-147153333D01*
X227344761Y-147105714D01*
X227535238Y-147105714D01*
X227630476Y-147153333D01*
X228773333Y-146724761D02*
X227916190Y-148010476D01*
X229106666Y-147772380D02*
X229106666Y-146772380D01*
X229487619Y-146772380D01*
X229582857Y-146820000D01*
X229630476Y-146867619D01*
X229678095Y-146962857D01*
X229678095Y-147105714D01*
X229630476Y-147200952D01*
X229582857Y-147248571D01*
X229487619Y-147296190D01*
X229106666Y-147296190D01*
X230106666Y-147772380D02*
X230106666Y-146772380D01*
X230440000Y-147486666D01*
X230773333Y-146772380D01*
X230773333Y-147772380D01*
X231440000Y-146772380D02*
X231630476Y-146772380D01*
X231725714Y-146820000D01*
X231820952Y-146915238D01*
X231868571Y-147105714D01*
X231868571Y-147439047D01*
X231820952Y-147629523D01*
X231725714Y-147724761D01*
X231630476Y-147772380D01*
X231440000Y-147772380D01*
X231344761Y-147724761D01*
X231249523Y-147629523D01*
X231201904Y-147439047D01*
X231201904Y-147105714D01*
X231249523Y-146915238D01*
X231344761Y-146820000D01*
X231440000Y-146772380D01*
X232297142Y-147772380D02*
X232297142Y-146772380D01*
X232535238Y-146772380D01*
X232678095Y-146820000D01*
X232773333Y-146915238D01*
X232820952Y-147010476D01*
X232868571Y-147200952D01*
X232868571Y-147343809D01*
X232820952Y-147534285D01*
X232773333Y-147629523D01*
X232678095Y-147724761D01*
X232535238Y-147772380D01*
X232297142Y-147772380D01*
X233297142Y-147391428D02*
X234059047Y-147391428D01*
X234535238Y-147105714D02*
X234535238Y-148105714D01*
X234535238Y-147153333D02*
X234630476Y-147105714D01*
X234820952Y-147105714D01*
X234916190Y-147153333D01*
X234963809Y-147200952D01*
X235011428Y-147296190D01*
X235011428Y-147581904D01*
X234963809Y-147677142D01*
X234916190Y-147724761D01*
X234820952Y-147772380D01*
X234630476Y-147772380D01*
X234535238Y-147724761D01*
X235440000Y-147772380D02*
X235440000Y-147105714D01*
X235440000Y-147296190D02*
X235487619Y-147200952D01*
X235535238Y-147153333D01*
X235630476Y-147105714D01*
X235725714Y-147105714D01*
X236201904Y-147772380D02*
X236106666Y-147724761D01*
X236059047Y-147677142D01*
X236011428Y-147581904D01*
X236011428Y-147296190D01*
X236059047Y-147200952D01*
X236106666Y-147153333D01*
X236201904Y-147105714D01*
X236344761Y-147105714D01*
X236440000Y-147153333D01*
X236487619Y-147200952D01*
X236535238Y-147296190D01*
X236535238Y-147581904D01*
X236487619Y-147677142D01*
X236440000Y-147724761D01*
X236344761Y-147772380D01*
X236201904Y-147772380D01*
X236820952Y-147105714D02*
X237201904Y-147105714D01*
X236963809Y-146772380D02*
X236963809Y-147629523D01*
X237011428Y-147724761D01*
X237106666Y-147772380D01*
X237201904Y-147772380D01*
X237678095Y-147772380D02*
X237582857Y-147724761D01*
X237535238Y-147677142D01*
X237487619Y-147581904D01*
X237487619Y-147296190D01*
X237535238Y-147200952D01*
X237582857Y-147153333D01*
X237678095Y-147105714D01*
X237820952Y-147105714D01*
X237916190Y-147153333D01*
X237963809Y-147200952D01*
X238011428Y-147296190D01*
X238011428Y-147581904D01*
X237963809Y-147677142D01*
X237916190Y-147724761D01*
X237820952Y-147772380D01*
X237678095Y-147772380D01*
X238440000Y-147391428D02*
X239201904Y-147391428D01*
X239678095Y-147772380D02*
X239678095Y-146772380D01*
X239678095Y-147153333D02*
X239773333Y-147105714D01*
X239963809Y-147105714D01*
X240059047Y-147153333D01*
X240106666Y-147200952D01*
X240154285Y-147296190D01*
X240154285Y-147581904D01*
X240106666Y-147677142D01*
X240059047Y-147724761D01*
X239963809Y-147772380D01*
X239773333Y-147772380D01*
X239678095Y-147724761D01*
X240725714Y-147772380D02*
X240630476Y-147724761D01*
X240582857Y-147677142D01*
X240535238Y-147581904D01*
X240535238Y-147296190D01*
X240582857Y-147200952D01*
X240630476Y-147153333D01*
X240725714Y-147105714D01*
X240868571Y-147105714D01*
X240963809Y-147153333D01*
X241011428Y-147200952D01*
X241059047Y-147296190D01*
X241059047Y-147581904D01*
X241011428Y-147677142D01*
X240963809Y-147724761D01*
X240868571Y-147772380D01*
X240725714Y-147772380D01*
X241916190Y-147772380D02*
X241916190Y-147248571D01*
X241868571Y-147153333D01*
X241773333Y-147105714D01*
X241582857Y-147105714D01*
X241487619Y-147153333D01*
X241916190Y-147724761D02*
X241820952Y-147772380D01*
X241582857Y-147772380D01*
X241487619Y-147724761D01*
X241440000Y-147629523D01*
X241440000Y-147534285D01*
X241487619Y-147439047D01*
X241582857Y-147391428D01*
X241820952Y-147391428D01*
X241916190Y-147343809D01*
X242392380Y-147772380D02*
X242392380Y-147105714D01*
X242392380Y-147296190D02*
X242440000Y-147200952D01*
X242487619Y-147153333D01*
X242582857Y-147105714D01*
X242678095Y-147105714D01*
X243440000Y-147772380D02*
X243440000Y-146772380D01*
X243440000Y-147724761D02*
X243344761Y-147772380D01*
X243154285Y-147772380D01*
X243059047Y-147724761D01*
X243011428Y-147677142D01*
X242963809Y-147581904D01*
X242963809Y-147296190D01*
X243011428Y-147200952D01*
X243059047Y-147153333D01*
X243154285Y-147105714D01*
X243344761Y-147105714D01*
X243440000Y-147153333D01*
X243963809Y-147724761D02*
X243963809Y-147772380D01*
X243916190Y-147867619D01*
X243868571Y-147915238D01*
X245106666Y-147486666D02*
X245582857Y-147486666D01*
X245011428Y-147772380D02*
X245344761Y-146772380D01*
X245678095Y-147772380D01*
X246011428Y-147105714D02*
X246011428Y-148105714D01*
X246011428Y-147153333D02*
X246106666Y-147105714D01*
X246297142Y-147105714D01*
X246392380Y-147153333D01*
X246440000Y-147200952D01*
X246487619Y-147296190D01*
X246487619Y-147581904D01*
X246440000Y-147677142D01*
X246392380Y-147724761D01*
X246297142Y-147772380D01*
X246106666Y-147772380D01*
X246011428Y-147724761D01*
X247344761Y-147772380D02*
X247344761Y-147248571D01*
X247297142Y-147153333D01*
X247201904Y-147105714D01*
X247011428Y-147105714D01*
X246916190Y-147153333D01*
X247344761Y-147724761D02*
X247249523Y-147772380D01*
X247011428Y-147772380D01*
X246916190Y-147724761D01*
X246868571Y-147629523D01*
X246868571Y-147534285D01*
X246916190Y-147439047D01*
X247011428Y-147391428D01*
X247249523Y-147391428D01*
X247344761Y-147343809D01*
X248249523Y-147724761D02*
X248154285Y-147772380D01*
X247963809Y-147772380D01*
X247868571Y-147724761D01*
X247820952Y-147677142D01*
X247773333Y-147581904D01*
X247773333Y-147296190D01*
X247820952Y-147200952D01*
X247868571Y-147153333D01*
X247963809Y-147105714D01*
X248154285Y-147105714D01*
X248249523Y-147153333D01*
X248678095Y-147772380D02*
X248678095Y-146772380D01*
X249106666Y-147772380D02*
X249106666Y-147248571D01*
X249059047Y-147153333D01*
X248963809Y-147105714D01*
X248820952Y-147105714D01*
X248725714Y-147153333D01*
X248678095Y-147200952D01*
X249963809Y-147724761D02*
X249868571Y-147772380D01*
X249678095Y-147772380D01*
X249582857Y-147724761D01*
X249535238Y-147629523D01*
X249535238Y-147248571D01*
X249582857Y-147153333D01*
X249678095Y-147105714D01*
X249868571Y-147105714D01*
X249963809Y-147153333D01*
X250011428Y-147248571D01*
X250011428Y-147343809D01*
X249535238Y-147439047D01*
X251678095Y-147772380D02*
X251201904Y-147772380D01*
X251201904Y-146772380D01*
X252011428Y-147772380D02*
X252011428Y-147105714D01*
X252011428Y-146772380D02*
X251963809Y-146820000D01*
X252011428Y-146867619D01*
X252059047Y-146820000D01*
X252011428Y-146772380D01*
X252011428Y-146867619D01*
X252916190Y-147724761D02*
X252820952Y-147772380D01*
X252630476Y-147772380D01*
X252535238Y-147724761D01*
X252487619Y-147677142D01*
X252440000Y-147581904D01*
X252440000Y-147296190D01*
X252487619Y-147200952D01*
X252535238Y-147153333D01*
X252630476Y-147105714D01*
X252820952Y-147105714D01*
X252916190Y-147153333D01*
X253725714Y-147724761D02*
X253630476Y-147772380D01*
X253440000Y-147772380D01*
X253344761Y-147724761D01*
X253297142Y-147629523D01*
X253297142Y-147248571D01*
X253344761Y-147153333D01*
X253440000Y-147105714D01*
X253630476Y-147105714D01*
X253725714Y-147153333D01*
X253773333Y-147248571D01*
X253773333Y-147343809D01*
X253297142Y-147439047D01*
X254201904Y-147105714D02*
X254201904Y-147772380D01*
X254201904Y-147200952D02*
X254249523Y-147153333D01*
X254344761Y-147105714D01*
X254487619Y-147105714D01*
X254582857Y-147153333D01*
X254630476Y-147248571D01*
X254630476Y-147772380D01*
X255059047Y-147724761D02*
X255154285Y-147772380D01*
X255344761Y-147772380D01*
X255440000Y-147724761D01*
X255487619Y-147629523D01*
X255487619Y-147581904D01*
X255440000Y-147486666D01*
X255344761Y-147439047D01*
X255201904Y-147439047D01*
X255106666Y-147391428D01*
X255059047Y-147296190D01*
X255059047Y-147248571D01*
X255106666Y-147153333D01*
X255201904Y-147105714D01*
X255344761Y-147105714D01*
X255440000Y-147153333D01*
X256297142Y-147724761D02*
X256201904Y-147772380D01*
X256011428Y-147772380D01*
X255916190Y-147724761D01*
X255868571Y-147629523D01*
X255868571Y-147248571D01*
X255916190Y-147153333D01*
X256011428Y-147105714D01*
X256201904Y-147105714D01*
X256297142Y-147153333D01*
X256344761Y-147248571D01*
X256344761Y-147343809D01*
X255868571Y-147439047D01*
X256820952Y-147724761D02*
X256820952Y-147772380D01*
X256773333Y-147867619D01*
X256725714Y-147915238D01*
X257916190Y-147105714D02*
X258154285Y-147772380D01*
X258392380Y-147105714D01*
X259154285Y-147724761D02*
X259059047Y-147772380D01*
X258868571Y-147772380D01*
X258773333Y-147724761D01*
X258725714Y-147629523D01*
X258725714Y-147248571D01*
X258773333Y-147153333D01*
X258868571Y-147105714D01*
X259059047Y-147105714D01*
X259154285Y-147153333D01*
X259201904Y-147248571D01*
X259201904Y-147343809D01*
X258725714Y-147439047D01*
X259630476Y-147772380D02*
X259630476Y-147105714D01*
X259630476Y-147296190D02*
X259678095Y-147200952D01*
X259725714Y-147153333D01*
X259820952Y-147105714D01*
X259916190Y-147105714D01*
X260201904Y-147724761D02*
X260297142Y-147772380D01*
X260487619Y-147772380D01*
X260582857Y-147724761D01*
X260630476Y-147629523D01*
X260630476Y-147581904D01*
X260582857Y-147486666D01*
X260487619Y-147439047D01*
X260344761Y-147439047D01*
X260249523Y-147391428D01*
X260201904Y-147296190D01*
X260201904Y-147248571D01*
X260249523Y-147153333D01*
X260344761Y-147105714D01*
X260487619Y-147105714D01*
X260582857Y-147153333D01*
X261059047Y-147772380D02*
X261059047Y-147105714D01*
X261059047Y-146772380D02*
X261011428Y-146820000D01*
X261059047Y-146867619D01*
X261106666Y-146820000D01*
X261059047Y-146772380D01*
X261059047Y-146867619D01*
X261678095Y-147772380D02*
X261582857Y-147724761D01*
X261535238Y-147677142D01*
X261487619Y-147581904D01*
X261487619Y-147296190D01*
X261535238Y-147200952D01*
X261582857Y-147153333D01*
X261678095Y-147105714D01*
X261820952Y-147105714D01*
X261916190Y-147153333D01*
X261963809Y-147200952D01*
X262011428Y-147296190D01*
X262011428Y-147581904D01*
X261963809Y-147677142D01*
X261916190Y-147724761D01*
X261820952Y-147772380D01*
X261678095Y-147772380D01*
X262440000Y-147105714D02*
X262440000Y-147772380D01*
X262440000Y-147200952D02*
X262487619Y-147153333D01*
X262582857Y-147105714D01*
X262725714Y-147105714D01*
X262820952Y-147153333D01*
X262868571Y-147248571D01*
X262868571Y-147772380D01*
X264059047Y-146867619D02*
X264106666Y-146820000D01*
X264201904Y-146772380D01*
X264440000Y-146772380D01*
X264535238Y-146820000D01*
X264582857Y-146867619D01*
X264630476Y-146962857D01*
X264630476Y-147058095D01*
X264582857Y-147200952D01*
X264011428Y-147772380D01*
X264630476Y-147772380D01*
X265059047Y-147677142D02*
X265106666Y-147724761D01*
X265059047Y-147772380D01*
X265011428Y-147724761D01*
X265059047Y-147677142D01*
X265059047Y-147772380D01*
X265725714Y-146772380D02*
X265820952Y-146772380D01*
X265916190Y-146820000D01*
X265963809Y-146867619D01*
X266011428Y-146962857D01*
X266059047Y-147153333D01*
X266059047Y-147391428D01*
X266011428Y-147581904D01*
X265963809Y-147677142D01*
X265916190Y-147724761D01*
X265820952Y-147772380D01*
X265725714Y-147772380D01*
X265630476Y-147724761D01*
X265582857Y-147677142D01*
X265535238Y-147581904D01*
X265487619Y-147391428D01*
X265487619Y-147153333D01*
X265535238Y-146962857D01*
X265582857Y-146867619D01*
X265630476Y-146820000D01*
X265725714Y-146772380D01*
X176940785Y-118880000D02*
X176845547Y-118832380D01*
X176702690Y-118832380D01*
X176559833Y-118880000D01*
X176464595Y-118975238D01*
X176416976Y-119070476D01*
X176369357Y-119260952D01*
X176369357Y-119403809D01*
X176416976Y-119594285D01*
X176464595Y-119689523D01*
X176559833Y-119784761D01*
X176702690Y-119832380D01*
X176797928Y-119832380D01*
X176940785Y-119784761D01*
X176988404Y-119737142D01*
X176988404Y-119403809D01*
X176797928Y-119403809D01*
X177416976Y-119832380D02*
X177416976Y-118832380D01*
X177988404Y-119832380D01*
X177988404Y-118832380D01*
X178464595Y-119832380D02*
X178464595Y-118832380D01*
X178702690Y-118832380D01*
X178845547Y-118880000D01*
X178940785Y-118975238D01*
X178988404Y-119070476D01*
X179036023Y-119260952D01*
X179036023Y-119403809D01*
X178988404Y-119594285D01*
X178940785Y-119689523D01*
X178845547Y-119784761D01*
X178702690Y-119832380D01*
X178464595Y-119832380D01*
X176607452Y-121372380D02*
X177226500Y-121372380D01*
X176893166Y-121753333D01*
X177036023Y-121753333D01*
X177131261Y-121800952D01*
X177178880Y-121848571D01*
X177226500Y-121943809D01*
X177226500Y-122181904D01*
X177178880Y-122277142D01*
X177131261Y-122324761D01*
X177036023Y-122372380D01*
X176750309Y-122372380D01*
X176655071Y-122324761D01*
X176607452Y-122277142D01*
X177512214Y-121372380D02*
X177845547Y-122372380D01*
X178178880Y-121372380D01*
X178416976Y-121372380D02*
X179036023Y-121372380D01*
X178702690Y-121753333D01*
X178845547Y-121753333D01*
X178940785Y-121800952D01*
X178988404Y-121848571D01*
X179036023Y-121943809D01*
X179036023Y-122181904D01*
X178988404Y-122277142D01*
X178940785Y-122324761D01*
X178845547Y-122372380D01*
X178559833Y-122372380D01*
X178464595Y-122324761D01*
X178416976Y-122277142D01*
X179705000Y-115570000D02*
X181610000Y-115570000D01*
X181610000Y-115570000D02*
X182880000Y-116840000D01*
X179705000Y-113030000D02*
X181610000Y-113030000D01*
X181610000Y-113030000D02*
X182880000Y-114300000D01*
X179705000Y-110490000D02*
X181610000Y-110490000D01*
X181610000Y-110490000D02*
X182880000Y-111760000D01*
X181610000Y-107950000D02*
X182880000Y-109220000D01*
X179705000Y-107950000D02*
X181610000Y-107950000D01*
X176988404Y-117292380D02*
X176988404Y-116292380D01*
X177655071Y-116292380D02*
X177845547Y-116292380D01*
X177940785Y-116340000D01*
X178036023Y-116435238D01*
X178083642Y-116625714D01*
X178083642Y-116959047D01*
X178036023Y-117149523D01*
X177940785Y-117244761D01*
X177845547Y-117292380D01*
X177655071Y-117292380D01*
X177559833Y-117244761D01*
X177464595Y-117149523D01*
X177416976Y-116959047D01*
X177416976Y-116625714D01*
X177464595Y-116435238D01*
X177559833Y-116340000D01*
X177655071Y-116292380D01*
X178655071Y-116720952D02*
X178559833Y-116673333D01*
X178512214Y-116625714D01*
X178464595Y-116530476D01*
X178464595Y-116482857D01*
X178512214Y-116387619D01*
X178559833Y-116340000D01*
X178655071Y-116292380D01*
X178845547Y-116292380D01*
X178940785Y-116340000D01*
X178988404Y-116387619D01*
X179036023Y-116482857D01*
X179036023Y-116530476D01*
X178988404Y-116625714D01*
X178940785Y-116673333D01*
X178845547Y-116720952D01*
X178655071Y-116720952D01*
X178559833Y-116768571D01*
X178512214Y-116816190D01*
X178464595Y-116911428D01*
X178464595Y-117101904D01*
X178512214Y-117197142D01*
X178559833Y-117244761D01*
X178655071Y-117292380D01*
X178845547Y-117292380D01*
X178940785Y-117244761D01*
X178988404Y-117197142D01*
X179036023Y-117101904D01*
X179036023Y-116911428D01*
X178988404Y-116816190D01*
X178940785Y-116768571D01*
X178845547Y-116720952D01*
X176988404Y-116022380D02*
X176988404Y-115022380D01*
X177655071Y-115022380D02*
X177845547Y-115022380D01*
X177940785Y-115070000D01*
X178036023Y-115165238D01*
X178083642Y-115355714D01*
X178083642Y-115689047D01*
X178036023Y-115879523D01*
X177940785Y-115974761D01*
X177845547Y-116022380D01*
X177655071Y-116022380D01*
X177559833Y-115974761D01*
X177464595Y-115879523D01*
X177416976Y-115689047D01*
X177416976Y-115355714D01*
X177464595Y-115165238D01*
X177559833Y-115070000D01*
X177655071Y-115022380D01*
X178940785Y-115355714D02*
X178940785Y-116022380D01*
X178702690Y-114974761D02*
X178464595Y-115689047D01*
X179083642Y-115689047D01*
X176988404Y-114752380D02*
X176988404Y-113752380D01*
X177655071Y-113752380D02*
X177845547Y-113752380D01*
X177940785Y-113800000D01*
X178036023Y-113895238D01*
X178083642Y-114085714D01*
X178083642Y-114419047D01*
X178036023Y-114609523D01*
X177940785Y-114704761D01*
X177845547Y-114752380D01*
X177655071Y-114752380D01*
X177559833Y-114704761D01*
X177464595Y-114609523D01*
X177416976Y-114419047D01*
X177416976Y-114085714D01*
X177464595Y-113895238D01*
X177559833Y-113800000D01*
X177655071Y-113752380D01*
X178416976Y-113752380D02*
X179083642Y-113752380D01*
X178655071Y-114752380D01*
X176988404Y-113482380D02*
X176988404Y-112482380D01*
X177655071Y-112482380D02*
X177845547Y-112482380D01*
X177940785Y-112530000D01*
X178036023Y-112625238D01*
X178083642Y-112815714D01*
X178083642Y-113149047D01*
X178036023Y-113339523D01*
X177940785Y-113434761D01*
X177845547Y-113482380D01*
X177655071Y-113482380D01*
X177559833Y-113434761D01*
X177464595Y-113339523D01*
X177416976Y-113149047D01*
X177416976Y-112815714D01*
X177464595Y-112625238D01*
X177559833Y-112530000D01*
X177655071Y-112482380D01*
X178416976Y-112482380D02*
X179036023Y-112482380D01*
X178702690Y-112863333D01*
X178845547Y-112863333D01*
X178940785Y-112910952D01*
X178988404Y-112958571D01*
X179036023Y-113053809D01*
X179036023Y-113291904D01*
X178988404Y-113387142D01*
X178940785Y-113434761D01*
X178845547Y-113482380D01*
X178559833Y-113482380D01*
X178464595Y-113434761D01*
X178416976Y-113387142D01*
X176988404Y-110942380D02*
X176988404Y-109942380D01*
X177655071Y-109942380D02*
X177845547Y-109942380D01*
X177940785Y-109990000D01*
X178036023Y-110085238D01*
X178083642Y-110275714D01*
X178083642Y-110609047D01*
X178036023Y-110799523D01*
X177940785Y-110894761D01*
X177845547Y-110942380D01*
X177655071Y-110942380D01*
X177559833Y-110894761D01*
X177464595Y-110799523D01*
X177416976Y-110609047D01*
X177416976Y-110275714D01*
X177464595Y-110085238D01*
X177559833Y-109990000D01*
X177655071Y-109942380D01*
X178464595Y-110037619D02*
X178512214Y-109990000D01*
X178607452Y-109942380D01*
X178845547Y-109942380D01*
X178940785Y-109990000D01*
X178988404Y-110037619D01*
X179036023Y-110132857D01*
X179036023Y-110228095D01*
X178988404Y-110370952D01*
X178416976Y-110942380D01*
X179036023Y-110942380D01*
X176988404Y-112212380D02*
X176988404Y-111212380D01*
X177655071Y-111212380D02*
X177845547Y-111212380D01*
X177940785Y-111260000D01*
X178036023Y-111355238D01*
X178083642Y-111545714D01*
X178083642Y-111879047D01*
X178036023Y-112069523D01*
X177940785Y-112164761D01*
X177845547Y-112212380D01*
X177655071Y-112212380D01*
X177559833Y-112164761D01*
X177464595Y-112069523D01*
X177416976Y-111879047D01*
X177416976Y-111545714D01*
X177464595Y-111355238D01*
X177559833Y-111260000D01*
X177655071Y-111212380D01*
X178940785Y-111212380D02*
X178750309Y-111212380D01*
X178655071Y-111260000D01*
X178607452Y-111307619D01*
X178512214Y-111450476D01*
X178464595Y-111640952D01*
X178464595Y-112021904D01*
X178512214Y-112117142D01*
X178559833Y-112164761D01*
X178655071Y-112212380D01*
X178845547Y-112212380D01*
X178940785Y-112164761D01*
X178988404Y-112117142D01*
X179036023Y-112021904D01*
X179036023Y-111783809D01*
X178988404Y-111688571D01*
X178940785Y-111640952D01*
X178845547Y-111593333D01*
X178655071Y-111593333D01*
X178559833Y-111640952D01*
X178512214Y-111688571D01*
X178464595Y-111783809D01*
X176988404Y-108402380D02*
X176988404Y-107402380D01*
X177655071Y-107402380D02*
X177845547Y-107402380D01*
X177940785Y-107450000D01*
X178036023Y-107545238D01*
X178083642Y-107735714D01*
X178083642Y-108069047D01*
X178036023Y-108259523D01*
X177940785Y-108354761D01*
X177845547Y-108402380D01*
X177655071Y-108402380D01*
X177559833Y-108354761D01*
X177464595Y-108259523D01*
X177416976Y-108069047D01*
X177416976Y-107735714D01*
X177464595Y-107545238D01*
X177559833Y-107450000D01*
X177655071Y-107402380D01*
X179036023Y-108402380D02*
X178464595Y-108402380D01*
X178750309Y-108402380D02*
X178750309Y-107402380D01*
X178655071Y-107545238D01*
X178559833Y-107640476D01*
X178464595Y-107688095D01*
X176988404Y-109672380D02*
X176988404Y-108672380D01*
X177655071Y-108672380D02*
X177845547Y-108672380D01*
X177940785Y-108720000D01*
X178036023Y-108815238D01*
X178083642Y-109005714D01*
X178083642Y-109339047D01*
X178036023Y-109529523D01*
X177940785Y-109624761D01*
X177845547Y-109672380D01*
X177655071Y-109672380D01*
X177559833Y-109624761D01*
X177464595Y-109529523D01*
X177416976Y-109339047D01*
X177416976Y-109005714D01*
X177464595Y-108815238D01*
X177559833Y-108720000D01*
X177655071Y-108672380D01*
X178988404Y-108672380D02*
X178512214Y-108672380D01*
X178464595Y-109148571D01*
X178512214Y-109100952D01*
X178607452Y-109053333D01*
X178845547Y-109053333D01*
X178940785Y-109100952D01*
X178988404Y-109148571D01*
X179036023Y-109243809D01*
X179036023Y-109481904D01*
X178988404Y-109577142D01*
X178940785Y-109624761D01*
X178845547Y-109672380D01*
X178607452Y-109672380D01*
X178512214Y-109624761D01*
X178464595Y-109577142D01*
X176602380Y-127166666D02*
X176126190Y-127500000D01*
X176602380Y-127738095D02*
X175602380Y-127738095D01*
X175602380Y-127357142D01*
X175650000Y-127261904D01*
X175697619Y-127214285D01*
X175792857Y-127166666D01*
X175935714Y-127166666D01*
X176030952Y-127214285D01*
X176078571Y-127261904D01*
X176126190Y-127357142D01*
X176126190Y-127738095D01*
X176602380Y-126214285D02*
X176602380Y-126785714D01*
X176602380Y-126500000D02*
X175602380Y-126500000D01*
X175745238Y-126595238D01*
X175840476Y-126690476D01*
X175888095Y-126785714D01*
X180411380Y-127738095D02*
X179411380Y-127738095D01*
X179411380Y-127500000D01*
X179459000Y-127357142D01*
X179554238Y-127261904D01*
X179649476Y-127214285D01*
X179839952Y-127166666D01*
X179982809Y-127166666D01*
X180173285Y-127214285D01*
X180268523Y-127261904D01*
X180363761Y-127357142D01*
X180411380Y-127500000D01*
X180411380Y-127738095D01*
X180411380Y-126214285D02*
X180411380Y-126785714D01*
X180411380Y-126500000D02*
X179411380Y-126500000D01*
X179554238Y-126595238D01*
X179649476Y-126690476D01*
X179697095Y-126785714D01*
X171397142Y-127166666D02*
X171444761Y-127214285D01*
X171492380Y-127357142D01*
X171492380Y-127452380D01*
X171444761Y-127595238D01*
X171349523Y-127690476D01*
X171254285Y-127738095D01*
X171063809Y-127785714D01*
X170920952Y-127785714D01*
X170730476Y-127738095D01*
X170635238Y-127690476D01*
X170540000Y-127595238D01*
X170492380Y-127452380D01*
X170492380Y-127357142D01*
X170540000Y-127214285D01*
X170587619Y-127166666D01*
X171492380Y-126214285D02*
X171492380Y-126785714D01*
X171492380Y-126500000D02*
X170492380Y-126500000D01*
X170635238Y-126595238D01*
X170730476Y-126690476D01*
X170778095Y-126785714D01*
X169846666Y-128992380D02*
X169846666Y-129706666D01*
X169799047Y-129849523D01*
X169703809Y-129944761D01*
X169560952Y-129992380D01*
X169465714Y-129992380D01*
X170275238Y-129087619D02*
X170322857Y-129040000D01*
X170418095Y-128992380D01*
X170656190Y-128992380D01*
X170751428Y-129040000D01*
X170799047Y-129087619D01*
X170846666Y-129182857D01*
X170846666Y-129278095D01*
X170799047Y-129420952D01*
X170227619Y-129992380D01*
X170846666Y-129992380D01*
X169846666Y-106132380D02*
X169846666Y-106846666D01*
X169799047Y-106989523D01*
X169703809Y-107084761D01*
X169560952Y-107132380D01*
X169465714Y-107132380D01*
X170846666Y-107132380D02*
X170275238Y-107132380D01*
X170560952Y-107132380D02*
X170560952Y-106132380D01*
X170465714Y-106275238D01*
X170370476Y-106370476D01*
X170275238Y-106418095D01*
D11*
X177065000Y-127227064D02*
X177065000Y-126772936D01*
X178535000Y-127227064D02*
X178535000Y-126772936D01*
X180665000Y-125140000D02*
X180665000Y-128000000D01*
X182585000Y-128000000D02*
X182585000Y-125140000D01*
X182585000Y-125140000D02*
X180665000Y-125140000D01*
X171985000Y-127261252D02*
X171985000Y-126738748D01*
X173455000Y-127261252D02*
X173455000Y-126738748D01*
X168620000Y-134240000D02*
X162620000Y-134240000D01*
X171677071Y-132460000D02*
X171280000Y-132460000D01*
X162620000Y-132460000D02*
X168620000Y-132460000D01*
X171677071Y-139320000D02*
X171280000Y-139320000D01*
X162620000Y-140080000D02*
X168620000Y-140080000D01*
X174217071Y-145160000D02*
X173762929Y-145160000D01*
X174217071Y-136780000D02*
X173762929Y-136780000D01*
X168620000Y-131880000D02*
X162620000Y-131880000D01*
X171280000Y-146110000D02*
X168620000Y-146110000D01*
X171280000Y-130750000D02*
X171280000Y-146110000D01*
X174217071Y-139320000D02*
X173762929Y-139320000D01*
X168620000Y-131760000D02*
X162620000Y-131760000D01*
X174217071Y-141860000D02*
X173762929Y-141860000D01*
X171280000Y-140970000D02*
X168620000Y-140970000D01*
X174217071Y-144400000D02*
X173762929Y-144400000D01*
X171677071Y-134240000D02*
X171280000Y-134240000D01*
X176530000Y-130810000D02*
X175260000Y-130810000D01*
X171280000Y-138430000D02*
X168620000Y-138430000D01*
X168620000Y-144400000D02*
X162620000Y-144400000D01*
X171677071Y-131700000D02*
X171280000Y-131700000D01*
X168620000Y-132000000D02*
X162620000Y-132000000D01*
X162620000Y-131700000D02*
X162620000Y-132460000D01*
X162620000Y-137540000D02*
X168620000Y-137540000D01*
X168620000Y-146110000D02*
X168620000Y-130750000D01*
X176530000Y-132080000D02*
X176530000Y-130810000D01*
X162620000Y-141860000D02*
X162620000Y-142620000D01*
X168620000Y-131700000D02*
X162620000Y-131700000D01*
X168620000Y-132360000D02*
X162620000Y-132360000D01*
X162620000Y-139320000D02*
X162620000Y-140080000D01*
X162620000Y-135000000D02*
X168620000Y-135000000D01*
X171677071Y-144400000D02*
X171280000Y-144400000D01*
X168620000Y-139320000D02*
X162620000Y-139320000D01*
X174150000Y-131700000D02*
X173762929Y-131700000D01*
X168620000Y-132240000D02*
X162620000Y-132240000D01*
X174150000Y-132460000D02*
X173762929Y-132460000D01*
X174217071Y-140080000D02*
X173762929Y-140080000D01*
X171677071Y-140080000D02*
X171280000Y-140080000D01*
X171280000Y-133350000D02*
X168620000Y-133350000D01*
X171677071Y-137540000D02*
X171280000Y-137540000D01*
X171677071Y-145160000D02*
X171280000Y-145160000D01*
X162620000Y-145160000D02*
X168620000Y-145160000D01*
X174217071Y-137540000D02*
X173762929Y-137540000D01*
X174217071Y-135000000D02*
X173762929Y-135000000D01*
X162620000Y-144400000D02*
X162620000Y-145160000D01*
X168620000Y-132120000D02*
X162620000Y-132120000D01*
X171677071Y-142620000D02*
X171280000Y-142620000D01*
X174217071Y-142620000D02*
X173762929Y-142620000D01*
X162620000Y-142620000D02*
X168620000Y-142620000D01*
X162620000Y-134240000D02*
X162620000Y-135000000D01*
X171280000Y-135890000D02*
X168620000Y-135890000D01*
X171280000Y-143510000D02*
X168620000Y-143510000D01*
X168620000Y-136780000D02*
X162620000Y-136780000D01*
X171677071Y-141860000D02*
X171280000Y-141860000D01*
X168620000Y-130750000D02*
X171280000Y-130750000D01*
X168620000Y-141860000D02*
X162620000Y-141860000D01*
X162620000Y-136780000D02*
X162620000Y-137540000D01*
X171677071Y-136780000D02*
X171280000Y-136780000D01*
X171677071Y-135000000D02*
X171280000Y-135000000D01*
X174217071Y-134240000D02*
X173762929Y-134240000D01*
X174217071Y-117220000D02*
X173762929Y-117220000D01*
X162620000Y-114680000D02*
X168620000Y-114680000D01*
X171677071Y-116460000D02*
X171280000Y-116460000D01*
X171280000Y-123250000D02*
X168620000Y-123250000D01*
X171677071Y-112140000D02*
X171280000Y-112140000D01*
X162620000Y-108840000D02*
X162620000Y-109600000D01*
X171677071Y-109600000D02*
X171280000Y-109600000D01*
X171677071Y-108840000D02*
X171280000Y-108840000D01*
X168620000Y-116460000D02*
X162620000Y-116460000D01*
X168620000Y-109140000D02*
X162620000Y-109140000D01*
X174217071Y-113920000D02*
X173762929Y-113920000D01*
X168620000Y-119000000D02*
X162620000Y-119000000D01*
X162620000Y-119760000D02*
X168620000Y-119760000D01*
X174217071Y-119000000D02*
X173762929Y-119000000D01*
X171677071Y-114680000D02*
X171280000Y-114680000D01*
X176530000Y-109220000D02*
X176530000Y-107950000D01*
X174217071Y-122300000D02*
X173762929Y-122300000D01*
X171280000Y-115570000D02*
X168620000Y-115570000D01*
X168620000Y-121540000D02*
X162620000Y-121540000D01*
X171677071Y-119760000D02*
X171280000Y-119760000D01*
X171677071Y-121540000D02*
X171280000Y-121540000D01*
X162620000Y-109600000D02*
X168620000Y-109600000D01*
X171280000Y-120650000D02*
X168620000Y-120650000D01*
X171677071Y-117220000D02*
X171280000Y-117220000D01*
X162620000Y-117220000D02*
X168620000Y-117220000D01*
X174150000Y-109600000D02*
X173762929Y-109600000D01*
X174217071Y-119760000D02*
X173762929Y-119760000D01*
X162620000Y-122300000D02*
X168620000Y-122300000D01*
X171677071Y-119000000D02*
X171280000Y-119000000D01*
X168620000Y-109020000D02*
X162620000Y-109020000D01*
X162620000Y-116460000D02*
X162620000Y-117220000D01*
X174217071Y-121540000D02*
X173762929Y-121540000D01*
X171677071Y-113920000D02*
X171280000Y-113920000D01*
X171280000Y-107890000D02*
X171280000Y-123250000D01*
X174217071Y-116460000D02*
X173762929Y-116460000D01*
X162620000Y-112140000D02*
X168620000Y-112140000D01*
X168620000Y-109500000D02*
X162620000Y-109500000D01*
X174217071Y-111380000D02*
X173762929Y-111380000D01*
X162620000Y-113920000D02*
X162620000Y-114680000D01*
X168620000Y-108900000D02*
X162620000Y-108900000D01*
X174150000Y-108840000D02*
X173762929Y-108840000D01*
X168620000Y-113920000D02*
X162620000Y-113920000D01*
X168620000Y-123250000D02*
X168620000Y-107890000D01*
X171677071Y-111380000D02*
X171280000Y-111380000D01*
X171280000Y-113030000D02*
X168620000Y-113030000D01*
X162620000Y-119000000D02*
X162620000Y-119760000D01*
X168620000Y-107890000D02*
X171280000Y-107890000D01*
X168620000Y-109260000D02*
X162620000Y-109260000D01*
X168620000Y-111380000D02*
X162620000Y-111380000D01*
X174217071Y-112140000D02*
X173762929Y-112140000D01*
X168620000Y-109380000D02*
X162620000Y-109380000D01*
X162620000Y-111380000D02*
X162620000Y-112140000D01*
X171677071Y-122300000D02*
X171280000Y-122300000D01*
X176530000Y-107950000D02*
X175260000Y-107950000D01*
X162620000Y-121540000D02*
X162620000Y-122300000D01*
X171280000Y-118110000D02*
X168620000Y-118110000D01*
X168620000Y-108840000D02*
X162620000Y-108840000D01*
X171280000Y-110490000D02*
X168620000Y-110490000D01*
X174217071Y-114680000D02*
X173762929Y-114680000D01*
%LPC*%
D12*
X177800000Y-128000000D03*
X177800000Y-126000000D03*
D13*
X181625000Y-125975000D03*
X181625000Y-128025000D03*
D14*
X172720000Y-128037500D03*
X172720000Y-125962500D03*
D15*
X180340000Y-142240000D03*
X180340000Y-144780000D03*
X182880000Y-142240000D03*
X182880000Y-144780000D03*
D16*
X256540000Y-139700000D03*
X264160000Y-139700000D03*
X254000000Y-139700000D03*
X259080000Y-139700000D03*
X241300000Y-139700000D03*
X248920000Y-139700000D03*
X223520000Y-139700000D03*
X261620000Y-139700000D03*
X246380000Y-139700000D03*
X251460000Y-139700000D03*
X233680000Y-139700000D03*
X228600000Y-139700000D03*
X236220000Y-139700000D03*
X238760000Y-139700000D03*
X231140000Y-139700000D03*
X218440000Y-139700000D03*
X210820000Y-139700000D03*
X220980000Y-139700000D03*
X215900000Y-139700000D03*
X203200000Y-139700000D03*
X213360000Y-139700000D03*
X243840000Y-139700000D03*
X205740000Y-139700000D03*
X200660000Y-139700000D03*
X195580000Y-139700000D03*
X226060000Y-139700000D03*
X198120000Y-139700000D03*
X208280000Y-139700000D03*
X228600000Y-142240000D03*
X193040000Y-139700000D03*
X223520000Y-142240000D03*
X190500000Y-139700000D03*
X261620000Y-142240000D03*
X251460000Y-142240000D03*
X254000000Y-142240000D03*
X233680000Y-142240000D03*
X226060000Y-142240000D03*
X220980000Y-142240000D03*
X238760000Y-142240000D03*
X259080000Y-142240000D03*
X241300000Y-142240000D03*
X218440000Y-142240000D03*
X187960000Y-142240000D03*
X200660000Y-142240000D03*
X231140000Y-142240000D03*
X251460000Y-144780000D03*
X193040000Y-142240000D03*
X213360000Y-142240000D03*
X264160000Y-144780000D03*
X233680000Y-144780000D03*
X236220000Y-142240000D03*
X259080000Y-144780000D03*
X205740000Y-142240000D03*
X195580000Y-142240000D03*
X256540000Y-144780000D03*
X215900000Y-142240000D03*
X246380000Y-144780000D03*
X190500000Y-142240000D03*
X185420000Y-142240000D03*
X210820000Y-142240000D03*
X218440000Y-144780000D03*
X198120000Y-142240000D03*
X203200000Y-142240000D03*
X198120000Y-144780000D03*
X243840000Y-142240000D03*
X236220000Y-144780000D03*
X195580000Y-144780000D03*
X210820000Y-144780000D03*
X228600000Y-144780000D03*
X223520000Y-144780000D03*
X208280000Y-144780000D03*
X254000000Y-144780000D03*
X231140000Y-144780000D03*
X208280000Y-142240000D03*
X203200000Y-144780000D03*
X220980000Y-144780000D03*
X226060000Y-144780000D03*
X200660000Y-144780000D03*
X215900000Y-144780000D03*
X248920000Y-142240000D03*
X261620000Y-144780000D03*
X205740000Y-144780000D03*
X238760000Y-144780000D03*
X248920000Y-144780000D03*
X246380000Y-142240000D03*
X241300000Y-144780000D03*
X264160000Y-142240000D03*
X213360000Y-144780000D03*
X185420000Y-139700000D03*
X193040000Y-144780000D03*
X190500000Y-144780000D03*
X185420000Y-144780000D03*
X256540000Y-142240000D03*
X187960000Y-139700000D03*
X243840000Y-144780000D03*
X187960000Y-144780000D03*
X259080000Y-129540000D03*
X251460000Y-129540000D03*
X254000000Y-129540000D03*
X241300000Y-129540000D03*
X233680000Y-129540000D03*
X261620000Y-129540000D03*
X228600000Y-129540000D03*
X223520000Y-129540000D03*
X190500000Y-129540000D03*
X238760000Y-129540000D03*
X256540000Y-132080000D03*
X226060000Y-129540000D03*
X218440000Y-129540000D03*
X210820000Y-129540000D03*
X215900000Y-129540000D03*
X264160000Y-132080000D03*
X213360000Y-129540000D03*
X195580000Y-129540000D03*
X243840000Y-129540000D03*
X220980000Y-129540000D03*
X187960000Y-129540000D03*
X203200000Y-129540000D03*
X200660000Y-129540000D03*
X185420000Y-129540000D03*
X205740000Y-129540000D03*
X193040000Y-129540000D03*
X231140000Y-129540000D03*
X198120000Y-129540000D03*
X236220000Y-129540000D03*
X208280000Y-129540000D03*
X246380000Y-132080000D03*
X248920000Y-132080000D03*
X259080000Y-132080000D03*
X254000000Y-132080000D03*
X251460000Y-132080000D03*
X261620000Y-132080000D03*
X241300000Y-132080000D03*
X233680000Y-132080000D03*
X228600000Y-132080000D03*
X236220000Y-132080000D03*
X223520000Y-132080000D03*
X238760000Y-132080000D03*
X231140000Y-132080000D03*
X226060000Y-132080000D03*
X218440000Y-132080000D03*
X220980000Y-132080000D03*
X210820000Y-132080000D03*
X203200000Y-132080000D03*
X198120000Y-132080000D03*
X243840000Y-132080000D03*
X205740000Y-132080000D03*
X215900000Y-132080000D03*
X208280000Y-132080000D03*
X213360000Y-132080000D03*
X200660000Y-132080000D03*
X195580000Y-132080000D03*
X218440000Y-124460000D03*
X210820000Y-124460000D03*
X198120000Y-124460000D03*
X259080000Y-124460000D03*
X254000000Y-124460000D03*
X233680000Y-124460000D03*
X251460000Y-124460000D03*
X243840000Y-124460000D03*
X261620000Y-124460000D03*
X205740000Y-124460000D03*
X241300000Y-124460000D03*
X220980000Y-124460000D03*
X238760000Y-124460000D03*
X228600000Y-124460000D03*
X203200000Y-124460000D03*
X236220000Y-124460000D03*
X231140000Y-124460000D03*
X223520000Y-124460000D03*
X226060000Y-124460000D03*
X208280000Y-124460000D03*
X193040000Y-124460000D03*
X241300000Y-127000000D03*
X187960000Y-124460000D03*
X264160000Y-127000000D03*
X259080000Y-127000000D03*
X190500000Y-124460000D03*
X223520000Y-127000000D03*
X233680000Y-127000000D03*
X213360000Y-124460000D03*
X236220000Y-127000000D03*
X248920000Y-127000000D03*
X228600000Y-127000000D03*
X246380000Y-127000000D03*
X200660000Y-124460000D03*
X185420000Y-124460000D03*
X251460000Y-127000000D03*
X195580000Y-124460000D03*
X254000000Y-127000000D03*
X256540000Y-127000000D03*
X261620000Y-127000000D03*
X215900000Y-124460000D03*
X231140000Y-127000000D03*
X210820000Y-127000000D03*
X190500000Y-127000000D03*
X264160000Y-129540000D03*
X215900000Y-127000000D03*
X213360000Y-127000000D03*
X195580000Y-127000000D03*
X193040000Y-127000000D03*
X200660000Y-127000000D03*
X246380000Y-129540000D03*
X203200000Y-127000000D03*
X185420000Y-127000000D03*
X208280000Y-127000000D03*
X205740000Y-127000000D03*
X187960000Y-127000000D03*
X248920000Y-129540000D03*
X243840000Y-127000000D03*
X256540000Y-129540000D03*
X226060000Y-127000000D03*
X218440000Y-127000000D03*
X220980000Y-127000000D03*
X238760000Y-127000000D03*
X198120000Y-127000000D03*
X190500000Y-132080000D03*
X193040000Y-132080000D03*
X261620000Y-134620000D03*
X228600000Y-134620000D03*
X223520000Y-134620000D03*
X256540000Y-137160000D03*
X251460000Y-134620000D03*
X254000000Y-134620000D03*
X233680000Y-134620000D03*
X190500000Y-134620000D03*
X226060000Y-134620000D03*
X220980000Y-134620000D03*
X215900000Y-134620000D03*
X210820000Y-134620000D03*
X259080000Y-134620000D03*
X241300000Y-134620000D03*
X238760000Y-134620000D03*
X218440000Y-134620000D03*
X187960000Y-134620000D03*
X213360000Y-134620000D03*
X264160000Y-137160000D03*
X243840000Y-134620000D03*
X195580000Y-134620000D03*
X236220000Y-134620000D03*
X185420000Y-134620000D03*
X203200000Y-134620000D03*
X200660000Y-134620000D03*
X205740000Y-134620000D03*
X193040000Y-134620000D03*
X231140000Y-134620000D03*
X198120000Y-134620000D03*
X246380000Y-137160000D03*
X259080000Y-137160000D03*
X233680000Y-137160000D03*
X218440000Y-137160000D03*
X251460000Y-137160000D03*
X198120000Y-137160000D03*
X236220000Y-137160000D03*
X195580000Y-137160000D03*
X215900000Y-137160000D03*
X261620000Y-137160000D03*
X210820000Y-137160000D03*
X228600000Y-137160000D03*
X223520000Y-137160000D03*
X205740000Y-137160000D03*
X241300000Y-137160000D03*
X208280000Y-137160000D03*
X264160000Y-134620000D03*
X248920000Y-134620000D03*
X238760000Y-137160000D03*
X231140000Y-137160000D03*
X200660000Y-137160000D03*
X208280000Y-134620000D03*
X248920000Y-137160000D03*
X254000000Y-137160000D03*
X226060000Y-137160000D03*
X220980000Y-137160000D03*
X203200000Y-137160000D03*
X243840000Y-137160000D03*
X213360000Y-137160000D03*
X246380000Y-134620000D03*
X193040000Y-137160000D03*
X190500000Y-137160000D03*
X185420000Y-137160000D03*
X187960000Y-137160000D03*
X248920000Y-124460000D03*
X256540000Y-124460000D03*
X264160000Y-124460000D03*
X246380000Y-124460000D03*
X256540000Y-134620000D03*
X185420000Y-132080000D03*
X187960000Y-132080000D03*
D15*
X180340000Y-139700000D03*
X180340000Y-137160000D03*
X180340000Y-134620000D03*
X180340000Y-132080000D03*
X182880000Y-132080000D03*
X182880000Y-134620000D03*
X182880000Y-137160000D03*
X182880000Y-139700000D03*
D17*
X175260000Y-132080000D03*
D18*
X175260000Y-134620000D03*
X175260000Y-137160000D03*
X175260000Y-139700000D03*
X175260000Y-142240000D03*
X175260000Y-144780000D03*
X172720000Y-132080000D03*
X172720000Y-134620000D03*
X172720000Y-137160000D03*
X172720000Y-139700000D03*
X172720000Y-142240000D03*
X172720000Y-144780000D03*
D16*
X259080000Y-119380000D03*
X251460000Y-119380000D03*
X254000000Y-119380000D03*
X241300000Y-119380000D03*
X233680000Y-119380000D03*
X261620000Y-119380000D03*
X228600000Y-119380000D03*
X223520000Y-119380000D03*
X190500000Y-119380000D03*
X238760000Y-119380000D03*
X256540000Y-121920000D03*
X226060000Y-119380000D03*
X218440000Y-119380000D03*
X210820000Y-119380000D03*
X215900000Y-119380000D03*
X264160000Y-121920000D03*
X213360000Y-119380000D03*
X195580000Y-119380000D03*
X243840000Y-119380000D03*
X220980000Y-119380000D03*
X187960000Y-119380000D03*
X203200000Y-119380000D03*
X200660000Y-119380000D03*
X185420000Y-119380000D03*
X205740000Y-119380000D03*
X193040000Y-119380000D03*
X231140000Y-119380000D03*
X198120000Y-119380000D03*
X236220000Y-119380000D03*
X208280000Y-119380000D03*
X246380000Y-121920000D03*
X248920000Y-121920000D03*
X259080000Y-121920000D03*
X254000000Y-121920000D03*
X251460000Y-121920000D03*
X261620000Y-121920000D03*
X241300000Y-121920000D03*
X233680000Y-121920000D03*
X228600000Y-121920000D03*
X236220000Y-121920000D03*
X223520000Y-121920000D03*
X238760000Y-121920000D03*
X231140000Y-121920000D03*
X226060000Y-121920000D03*
X218440000Y-121920000D03*
X220980000Y-121920000D03*
X210820000Y-121920000D03*
X203200000Y-121920000D03*
X198120000Y-121920000D03*
X243840000Y-121920000D03*
X205740000Y-121920000D03*
X215900000Y-121920000D03*
X208280000Y-121920000D03*
X213360000Y-121920000D03*
X200660000Y-121920000D03*
X195580000Y-121920000D03*
X264160000Y-119380000D03*
X246380000Y-119380000D03*
X248920000Y-119380000D03*
X256540000Y-119380000D03*
X190500000Y-121920000D03*
X193040000Y-121920000D03*
X185420000Y-121920000D03*
X187960000Y-121920000D03*
D15*
X180340000Y-121920000D03*
X182880000Y-121920000D03*
X180340000Y-119380000D03*
X182880000Y-119380000D03*
D16*
X256540000Y-109220000D03*
X264160000Y-109220000D03*
X246380000Y-109220000D03*
X248920000Y-109220000D03*
X259080000Y-109220000D03*
X254000000Y-109220000D03*
X251460000Y-109220000D03*
X261620000Y-109220000D03*
X241300000Y-109220000D03*
X233680000Y-109220000D03*
X228600000Y-109220000D03*
X236220000Y-109220000D03*
X223520000Y-109220000D03*
X238760000Y-109220000D03*
X231140000Y-109220000D03*
X226060000Y-109220000D03*
X218440000Y-109220000D03*
X220980000Y-109220000D03*
X210820000Y-109220000D03*
X203200000Y-109220000D03*
X198120000Y-109220000D03*
X243840000Y-109220000D03*
X205740000Y-109220000D03*
X215900000Y-109220000D03*
X208280000Y-109220000D03*
X213360000Y-109220000D03*
X200660000Y-109220000D03*
X195580000Y-109220000D03*
X190500000Y-109220000D03*
X193040000Y-109220000D03*
X185420000Y-109220000D03*
X187960000Y-109220000D03*
X256540000Y-111760000D03*
X264160000Y-111760000D03*
X246380000Y-111760000D03*
X248920000Y-111760000D03*
X259080000Y-111760000D03*
X254000000Y-111760000D03*
X251460000Y-111760000D03*
X261620000Y-111760000D03*
X241300000Y-111760000D03*
X233680000Y-111760000D03*
X228600000Y-111760000D03*
X236220000Y-111760000D03*
X223520000Y-111760000D03*
X238760000Y-111760000D03*
X231140000Y-111760000D03*
X226060000Y-111760000D03*
X218440000Y-111760000D03*
X220980000Y-111760000D03*
X210820000Y-111760000D03*
X203200000Y-111760000D03*
X198120000Y-111760000D03*
X243840000Y-111760000D03*
X205740000Y-111760000D03*
X215900000Y-111760000D03*
X208280000Y-111760000D03*
X213360000Y-111760000D03*
X200660000Y-111760000D03*
X195580000Y-111760000D03*
X190500000Y-111760000D03*
X193040000Y-111760000D03*
X185420000Y-111760000D03*
X187960000Y-111760000D03*
X256540000Y-114300000D03*
X264160000Y-114300000D03*
X246380000Y-114300000D03*
X248920000Y-114300000D03*
X259080000Y-114300000D03*
X254000000Y-114300000D03*
X251460000Y-114300000D03*
X261620000Y-114300000D03*
X241300000Y-114300000D03*
X233680000Y-114300000D03*
X228600000Y-114300000D03*
X236220000Y-114300000D03*
X223520000Y-114300000D03*
X238760000Y-114300000D03*
X231140000Y-114300000D03*
X226060000Y-114300000D03*
X218440000Y-114300000D03*
X220980000Y-114300000D03*
X210820000Y-114300000D03*
X203200000Y-114300000D03*
X198120000Y-114300000D03*
X243840000Y-114300000D03*
X205740000Y-114300000D03*
X215900000Y-114300000D03*
X208280000Y-114300000D03*
X213360000Y-114300000D03*
X200660000Y-114300000D03*
X195580000Y-114300000D03*
X190500000Y-114300000D03*
X193040000Y-114300000D03*
X185420000Y-114300000D03*
X187960000Y-114300000D03*
X264160000Y-116840000D03*
X256540000Y-116840000D03*
X251460000Y-116840000D03*
X259080000Y-116840000D03*
X246380000Y-116840000D03*
X261620000Y-116840000D03*
X254000000Y-116840000D03*
X248920000Y-116840000D03*
X241300000Y-116840000D03*
X233680000Y-116840000D03*
X228600000Y-116840000D03*
X236220000Y-116840000D03*
X238760000Y-116840000D03*
X243840000Y-116840000D03*
X231140000Y-116840000D03*
X226060000Y-116840000D03*
X220980000Y-116840000D03*
X223520000Y-116840000D03*
X215900000Y-116840000D03*
X218440000Y-116840000D03*
X213360000Y-116840000D03*
X208280000Y-116840000D03*
X210820000Y-116840000D03*
X205740000Y-116840000D03*
X200660000Y-116840000D03*
X203200000Y-116840000D03*
X195580000Y-116840000D03*
X198120000Y-116840000D03*
X190500000Y-116840000D03*
X193040000Y-116840000D03*
D15*
X180340000Y-116840000D03*
X180340000Y-114300000D03*
X180340000Y-111760000D03*
X180340000Y-109220000D03*
X182880000Y-109220000D03*
X182880000Y-111760000D03*
X182880000Y-114300000D03*
X182880000Y-116840000D03*
D16*
X187960000Y-116840000D03*
X185420000Y-116840000D03*
D17*
X175260000Y-109220000D03*
D18*
X175260000Y-111760000D03*
X175260000Y-114300000D03*
X175260000Y-116840000D03*
X175260000Y-119380000D03*
X175260000Y-121920000D03*
X172720000Y-109220000D03*
X172720000Y-111760000D03*
X172720000Y-114300000D03*
X172720000Y-116840000D03*
X172720000Y-119380000D03*
X172720000Y-121920000D03*
M02*
