G04 #@! TF.GenerationSoftware,KiCad,Pcbnew,(6.0.9)*
G04 #@! TF.CreationDate,2022-11-21T20:36:18+01:00*
G04 #@! TF.ProjectId,PMOD proto board,504d4f44-2070-4726-9f74-6f20626f6172,V1.0*
G04 #@! TF.SameCoordinates,Original*
G04 #@! TF.FileFunction,Legend,Bot*
G04 #@! TF.FilePolarity,Positive*
%FSLAX46Y46*%
G04 Gerber Fmt 4.6, Leading zero omitted, Abs format (unit mm)*
G04 Created by KiCad (PCBNEW (6.0.9)) date 2022-11-21 20:36:18*
%MOMM*%
%LPD*%
G01*
G04 APERTURE LIST*
%ADD10C,1.700000*%
%ADD11C,2.000000*%
%ADD12R,1.700000X1.700000*%
%ADD13O,1.700000X1.700000*%
G04 APERTURE END LIST*
%LPC*%
D10*
X180340000Y-142240000D03*
X180340000Y-144780000D03*
X182880000Y-142240000D03*
X182880000Y-144780000D03*
D11*
X256540000Y-139700000D03*
X264160000Y-139700000D03*
X254000000Y-139700000D03*
X259080000Y-139700000D03*
X241300000Y-139700000D03*
X248920000Y-139700000D03*
X223520000Y-139700000D03*
X261620000Y-139700000D03*
X246380000Y-139700000D03*
X251460000Y-139700000D03*
X233680000Y-139700000D03*
X228600000Y-139700000D03*
X236220000Y-139700000D03*
X238760000Y-139700000D03*
X231140000Y-139700000D03*
X218440000Y-139700000D03*
X210820000Y-139700000D03*
X220980000Y-139700000D03*
X215900000Y-139700000D03*
X203200000Y-139700000D03*
X213360000Y-139700000D03*
X243840000Y-139700000D03*
X205740000Y-139700000D03*
X200660000Y-139700000D03*
X195580000Y-139700000D03*
X226060000Y-139700000D03*
X198120000Y-139700000D03*
X208280000Y-139700000D03*
X228600000Y-142240000D03*
X193040000Y-139700000D03*
X223520000Y-142240000D03*
X190500000Y-139700000D03*
X261620000Y-142240000D03*
X251460000Y-142240000D03*
X254000000Y-142240000D03*
X233680000Y-142240000D03*
X226060000Y-142240000D03*
X220980000Y-142240000D03*
X238760000Y-142240000D03*
X259080000Y-142240000D03*
X241300000Y-142240000D03*
X218440000Y-142240000D03*
X187960000Y-142240000D03*
X200660000Y-142240000D03*
X231140000Y-142240000D03*
X251460000Y-144780000D03*
X193040000Y-142240000D03*
X213360000Y-142240000D03*
X264160000Y-144780000D03*
X233680000Y-144780000D03*
X236220000Y-142240000D03*
X259080000Y-144780000D03*
X205740000Y-142240000D03*
X195580000Y-142240000D03*
X256540000Y-144780000D03*
X215900000Y-142240000D03*
X246380000Y-144780000D03*
X190500000Y-142240000D03*
X185420000Y-142240000D03*
X210820000Y-142240000D03*
X218440000Y-144780000D03*
X198120000Y-142240000D03*
X203200000Y-142240000D03*
X198120000Y-144780000D03*
X243840000Y-142240000D03*
X236220000Y-144780000D03*
X195580000Y-144780000D03*
X210820000Y-144780000D03*
X228600000Y-144780000D03*
X223520000Y-144780000D03*
X208280000Y-144780000D03*
X254000000Y-144780000D03*
X231140000Y-144780000D03*
X208280000Y-142240000D03*
X203200000Y-144780000D03*
X220980000Y-144780000D03*
X226060000Y-144780000D03*
X200660000Y-144780000D03*
X215900000Y-144780000D03*
X248920000Y-142240000D03*
X261620000Y-144780000D03*
X205740000Y-144780000D03*
X238760000Y-144780000D03*
X248920000Y-144780000D03*
X246380000Y-142240000D03*
X241300000Y-144780000D03*
X264160000Y-142240000D03*
X213360000Y-144780000D03*
X185420000Y-139700000D03*
X193040000Y-144780000D03*
X190500000Y-144780000D03*
X185420000Y-144780000D03*
X256540000Y-142240000D03*
X187960000Y-139700000D03*
X243840000Y-144780000D03*
X187960000Y-144780000D03*
X259080000Y-129540000D03*
X251460000Y-129540000D03*
X254000000Y-129540000D03*
X241300000Y-129540000D03*
X233680000Y-129540000D03*
X261620000Y-129540000D03*
X228600000Y-129540000D03*
X223520000Y-129540000D03*
X190500000Y-129540000D03*
X238760000Y-129540000D03*
X256540000Y-132080000D03*
X226060000Y-129540000D03*
X218440000Y-129540000D03*
X210820000Y-129540000D03*
X215900000Y-129540000D03*
X264160000Y-132080000D03*
X213360000Y-129540000D03*
X195580000Y-129540000D03*
X243840000Y-129540000D03*
X220980000Y-129540000D03*
X187960000Y-129540000D03*
X203200000Y-129540000D03*
X200660000Y-129540000D03*
X185420000Y-129540000D03*
X205740000Y-129540000D03*
X193040000Y-129540000D03*
X231140000Y-129540000D03*
X198120000Y-129540000D03*
X236220000Y-129540000D03*
X208280000Y-129540000D03*
X246380000Y-132080000D03*
X248920000Y-132080000D03*
X259080000Y-132080000D03*
X254000000Y-132080000D03*
X251460000Y-132080000D03*
X261620000Y-132080000D03*
X241300000Y-132080000D03*
X233680000Y-132080000D03*
X228600000Y-132080000D03*
X236220000Y-132080000D03*
X223520000Y-132080000D03*
X238760000Y-132080000D03*
X231140000Y-132080000D03*
X226060000Y-132080000D03*
X218440000Y-132080000D03*
X220980000Y-132080000D03*
X210820000Y-132080000D03*
X203200000Y-132080000D03*
X198120000Y-132080000D03*
X243840000Y-132080000D03*
X205740000Y-132080000D03*
X215900000Y-132080000D03*
X208280000Y-132080000D03*
X213360000Y-132080000D03*
X200660000Y-132080000D03*
X195580000Y-132080000D03*
X218440000Y-124460000D03*
X210820000Y-124460000D03*
X198120000Y-124460000D03*
X259080000Y-124460000D03*
X254000000Y-124460000D03*
X233680000Y-124460000D03*
X251460000Y-124460000D03*
X243840000Y-124460000D03*
X261620000Y-124460000D03*
X205740000Y-124460000D03*
X241300000Y-124460000D03*
X220980000Y-124460000D03*
X238760000Y-124460000D03*
X228600000Y-124460000D03*
X203200000Y-124460000D03*
X236220000Y-124460000D03*
X231140000Y-124460000D03*
X223520000Y-124460000D03*
X226060000Y-124460000D03*
X208280000Y-124460000D03*
X193040000Y-124460000D03*
X241300000Y-127000000D03*
X187960000Y-124460000D03*
X264160000Y-127000000D03*
X259080000Y-127000000D03*
X190500000Y-124460000D03*
X223520000Y-127000000D03*
X233680000Y-127000000D03*
X213360000Y-124460000D03*
X236220000Y-127000000D03*
X248920000Y-127000000D03*
X228600000Y-127000000D03*
X246380000Y-127000000D03*
X200660000Y-124460000D03*
X185420000Y-124460000D03*
X251460000Y-127000000D03*
X195580000Y-124460000D03*
X254000000Y-127000000D03*
X256540000Y-127000000D03*
X261620000Y-127000000D03*
X215900000Y-124460000D03*
X231140000Y-127000000D03*
X210820000Y-127000000D03*
X190500000Y-127000000D03*
X264160000Y-129540000D03*
X215900000Y-127000000D03*
X213360000Y-127000000D03*
X195580000Y-127000000D03*
X193040000Y-127000000D03*
X200660000Y-127000000D03*
X246380000Y-129540000D03*
X203200000Y-127000000D03*
X185420000Y-127000000D03*
X208280000Y-127000000D03*
X205740000Y-127000000D03*
X187960000Y-127000000D03*
X248920000Y-129540000D03*
X243840000Y-127000000D03*
X256540000Y-129540000D03*
X226060000Y-127000000D03*
X218440000Y-127000000D03*
X220980000Y-127000000D03*
X238760000Y-127000000D03*
X198120000Y-127000000D03*
X190500000Y-132080000D03*
X193040000Y-132080000D03*
X261620000Y-134620000D03*
X228600000Y-134620000D03*
X223520000Y-134620000D03*
X256540000Y-137160000D03*
X251460000Y-134620000D03*
X254000000Y-134620000D03*
X233680000Y-134620000D03*
X190500000Y-134620000D03*
X226060000Y-134620000D03*
X220980000Y-134620000D03*
X215900000Y-134620000D03*
X210820000Y-134620000D03*
X259080000Y-134620000D03*
X241300000Y-134620000D03*
X238760000Y-134620000D03*
X218440000Y-134620000D03*
X187960000Y-134620000D03*
X213360000Y-134620000D03*
X264160000Y-137160000D03*
X243840000Y-134620000D03*
X195580000Y-134620000D03*
X236220000Y-134620000D03*
X185420000Y-134620000D03*
X203200000Y-134620000D03*
X200660000Y-134620000D03*
X205740000Y-134620000D03*
X193040000Y-134620000D03*
X231140000Y-134620000D03*
X198120000Y-134620000D03*
X246380000Y-137160000D03*
X259080000Y-137160000D03*
X233680000Y-137160000D03*
X218440000Y-137160000D03*
X251460000Y-137160000D03*
X198120000Y-137160000D03*
X236220000Y-137160000D03*
X195580000Y-137160000D03*
X215900000Y-137160000D03*
X261620000Y-137160000D03*
X210820000Y-137160000D03*
X228600000Y-137160000D03*
X223520000Y-137160000D03*
X205740000Y-137160000D03*
X241300000Y-137160000D03*
X208280000Y-137160000D03*
X264160000Y-134620000D03*
X248920000Y-134620000D03*
X238760000Y-137160000D03*
X231140000Y-137160000D03*
X200660000Y-137160000D03*
X208280000Y-134620000D03*
X248920000Y-137160000D03*
X254000000Y-137160000D03*
X226060000Y-137160000D03*
X220980000Y-137160000D03*
X203200000Y-137160000D03*
X243840000Y-137160000D03*
X213360000Y-137160000D03*
X246380000Y-134620000D03*
X193040000Y-137160000D03*
X190500000Y-137160000D03*
X185420000Y-137160000D03*
X187960000Y-137160000D03*
X248920000Y-124460000D03*
X256540000Y-124460000D03*
X264160000Y-124460000D03*
X246380000Y-124460000D03*
X256540000Y-134620000D03*
X185420000Y-132080000D03*
X187960000Y-132080000D03*
D10*
X180340000Y-139700000D03*
X180340000Y-137160000D03*
X180340000Y-134620000D03*
X180340000Y-132080000D03*
X182880000Y-132080000D03*
X182880000Y-134620000D03*
X182880000Y-137160000D03*
X182880000Y-139700000D03*
D12*
X175260000Y-132080000D03*
D13*
X175260000Y-134620000D03*
X175260000Y-137160000D03*
X175260000Y-139700000D03*
X175260000Y-142240000D03*
X175260000Y-144780000D03*
X172720000Y-132080000D03*
X172720000Y-134620000D03*
X172720000Y-137160000D03*
X172720000Y-139700000D03*
X172720000Y-142240000D03*
X172720000Y-144780000D03*
D11*
X259080000Y-119380000D03*
X251460000Y-119380000D03*
X254000000Y-119380000D03*
X241300000Y-119380000D03*
X233680000Y-119380000D03*
X261620000Y-119380000D03*
X228600000Y-119380000D03*
X223520000Y-119380000D03*
X190500000Y-119380000D03*
X238760000Y-119380000D03*
X256540000Y-121920000D03*
X226060000Y-119380000D03*
X218440000Y-119380000D03*
X210820000Y-119380000D03*
X215900000Y-119380000D03*
X264160000Y-121920000D03*
X213360000Y-119380000D03*
X195580000Y-119380000D03*
X243840000Y-119380000D03*
X220980000Y-119380000D03*
X187960000Y-119380000D03*
X203200000Y-119380000D03*
X200660000Y-119380000D03*
X185420000Y-119380000D03*
X205740000Y-119380000D03*
X193040000Y-119380000D03*
X231140000Y-119380000D03*
X198120000Y-119380000D03*
X236220000Y-119380000D03*
X208280000Y-119380000D03*
X246380000Y-121920000D03*
X248920000Y-121920000D03*
X259080000Y-121920000D03*
X254000000Y-121920000D03*
X251460000Y-121920000D03*
X261620000Y-121920000D03*
X241300000Y-121920000D03*
X233680000Y-121920000D03*
X228600000Y-121920000D03*
X236220000Y-121920000D03*
X223520000Y-121920000D03*
X238760000Y-121920000D03*
X231140000Y-121920000D03*
X226060000Y-121920000D03*
X218440000Y-121920000D03*
X220980000Y-121920000D03*
X210820000Y-121920000D03*
X203200000Y-121920000D03*
X198120000Y-121920000D03*
X243840000Y-121920000D03*
X205740000Y-121920000D03*
X215900000Y-121920000D03*
X208280000Y-121920000D03*
X213360000Y-121920000D03*
X200660000Y-121920000D03*
X195580000Y-121920000D03*
X264160000Y-119380000D03*
X246380000Y-119380000D03*
X248920000Y-119380000D03*
X256540000Y-119380000D03*
X190500000Y-121920000D03*
X193040000Y-121920000D03*
X185420000Y-121920000D03*
X187960000Y-121920000D03*
D10*
X180340000Y-121920000D03*
X182880000Y-121920000D03*
X180340000Y-119380000D03*
X182880000Y-119380000D03*
D11*
X256540000Y-109220000D03*
X264160000Y-109220000D03*
X246380000Y-109220000D03*
X248920000Y-109220000D03*
X259080000Y-109220000D03*
X254000000Y-109220000D03*
X251460000Y-109220000D03*
X261620000Y-109220000D03*
X241300000Y-109220000D03*
X233680000Y-109220000D03*
X228600000Y-109220000D03*
X236220000Y-109220000D03*
X223520000Y-109220000D03*
X238760000Y-109220000D03*
X231140000Y-109220000D03*
X226060000Y-109220000D03*
X218440000Y-109220000D03*
X220980000Y-109220000D03*
X210820000Y-109220000D03*
X203200000Y-109220000D03*
X198120000Y-109220000D03*
X243840000Y-109220000D03*
X205740000Y-109220000D03*
X215900000Y-109220000D03*
X208280000Y-109220000D03*
X213360000Y-109220000D03*
X200660000Y-109220000D03*
X195580000Y-109220000D03*
X190500000Y-109220000D03*
X193040000Y-109220000D03*
X185420000Y-109220000D03*
X187960000Y-109220000D03*
X256540000Y-111760000D03*
X264160000Y-111760000D03*
X246380000Y-111760000D03*
X248920000Y-111760000D03*
X259080000Y-111760000D03*
X254000000Y-111760000D03*
X251460000Y-111760000D03*
X261620000Y-111760000D03*
X241300000Y-111760000D03*
X233680000Y-111760000D03*
X228600000Y-111760000D03*
X236220000Y-111760000D03*
X223520000Y-111760000D03*
X238760000Y-111760000D03*
X231140000Y-111760000D03*
X226060000Y-111760000D03*
X218440000Y-111760000D03*
X220980000Y-111760000D03*
X210820000Y-111760000D03*
X203200000Y-111760000D03*
X198120000Y-111760000D03*
X243840000Y-111760000D03*
X205740000Y-111760000D03*
X215900000Y-111760000D03*
X208280000Y-111760000D03*
X213360000Y-111760000D03*
X200660000Y-111760000D03*
X195580000Y-111760000D03*
X190500000Y-111760000D03*
X193040000Y-111760000D03*
X185420000Y-111760000D03*
X187960000Y-111760000D03*
X256540000Y-114300000D03*
X264160000Y-114300000D03*
X246380000Y-114300000D03*
X248920000Y-114300000D03*
X259080000Y-114300000D03*
X254000000Y-114300000D03*
X251460000Y-114300000D03*
X261620000Y-114300000D03*
X241300000Y-114300000D03*
X233680000Y-114300000D03*
X228600000Y-114300000D03*
X236220000Y-114300000D03*
X223520000Y-114300000D03*
X238760000Y-114300000D03*
X231140000Y-114300000D03*
X226060000Y-114300000D03*
X218440000Y-114300000D03*
X220980000Y-114300000D03*
X210820000Y-114300000D03*
X203200000Y-114300000D03*
X198120000Y-114300000D03*
X243840000Y-114300000D03*
X205740000Y-114300000D03*
X215900000Y-114300000D03*
X208280000Y-114300000D03*
X213360000Y-114300000D03*
X200660000Y-114300000D03*
X195580000Y-114300000D03*
X190500000Y-114300000D03*
X193040000Y-114300000D03*
X185420000Y-114300000D03*
X187960000Y-114300000D03*
X264160000Y-116840000D03*
X256540000Y-116840000D03*
X251460000Y-116840000D03*
X259080000Y-116840000D03*
X246380000Y-116840000D03*
X261620000Y-116840000D03*
X254000000Y-116840000D03*
X248920000Y-116840000D03*
X241300000Y-116840000D03*
X233680000Y-116840000D03*
X228600000Y-116840000D03*
X236220000Y-116840000D03*
X238760000Y-116840000D03*
X243840000Y-116840000D03*
X231140000Y-116840000D03*
X226060000Y-116840000D03*
X220980000Y-116840000D03*
X223520000Y-116840000D03*
X215900000Y-116840000D03*
X218440000Y-116840000D03*
X213360000Y-116840000D03*
X208280000Y-116840000D03*
X210820000Y-116840000D03*
X205740000Y-116840000D03*
X200660000Y-116840000D03*
X203200000Y-116840000D03*
X195580000Y-116840000D03*
X198120000Y-116840000D03*
X190500000Y-116840000D03*
X193040000Y-116840000D03*
D10*
X180340000Y-116840000D03*
X180340000Y-114300000D03*
X180340000Y-111760000D03*
X180340000Y-109220000D03*
X182880000Y-109220000D03*
X182880000Y-111760000D03*
X182880000Y-114300000D03*
X182880000Y-116840000D03*
D11*
X187960000Y-116840000D03*
X185420000Y-116840000D03*
D12*
X175260000Y-109220000D03*
D13*
X175260000Y-111760000D03*
X175260000Y-114300000D03*
X175260000Y-116840000D03*
X175260000Y-119380000D03*
X175260000Y-121920000D03*
X172720000Y-109220000D03*
X172720000Y-111760000D03*
X172720000Y-114300000D03*
X172720000Y-116840000D03*
X172720000Y-119380000D03*
X172720000Y-121920000D03*
M02*
